<svg xmlns="http://www.w3.org/2000/svg" xmlns:xlink="http://www.w3.org/1999/xlink" contentStyleType="text/css" height="539px" preserveAspectRatio="none" style="width:1097px;height:539px;background:#FFFFFF;" version="1.1" viewBox="0 0 1097 539" width="1097px" zoomAndPan="magnify"><defs/><g><!--cluster B?ho_Social--><g id="cluster_B&#250;ho_Social"><rect fill="none" height="526" rx="2.5" ry="2.5" style="stroke:#181818;stroke-width:1;" width="756.65" x="335.32" y="7"/><text fill="#000000" font-family="sans-serif" font-size="14" font-weight="bold" lengthAdjust="spacing" textLength="94.2676" x="666.5112" y="21.9951">B&#250;ho_Social</text></g><g id="elem_UC1"><ellipse cx="452.7392" cy="214.0038" fill="#F1F1F1" rx="69.6192" ry="16.3238" style="stroke:#181818;stroke-width:0.5;"/><text fill="#000000" font-family="sans-serif" font-size="14" lengthAdjust="spacing" textLength="91.793" x="403.8427" y="217.7514">Iniciar sesi&#243;n</text></g><g id="elem_UC2"><ellipse cx="452.7436" cy="284.0047" fill="#F1F1F1" rx="80.7236" ry="18.5447" style="stroke:#181818;stroke-width:0.5;"/><text fill="#000000" font-family="sans-serif" font-size="14" lengthAdjust="spacing" textLength="120.2715" x="391.2113" y="287.3048">Registrar usuario</text></g><g id="elem_UC3"><ellipse cx="452.7388" cy="140.0038" fill="#F1F1F1" rx="101.4188" ry="22.6838" style="stroke:#181818;stroke-width:0.5;"/><text fill="#000000" font-family="sans-serif" font-size="14" lengthAdjust="spacing" textLength="167.1797" x="369.149" y="142.8504">Consultar publicaciones</text></g><g id="elem_UC4"><ellipse cx="753.2897" cy="139.9959" fill="#F1F1F1" rx="76.1297" ry="17.6259" style="stroke:#181818;stroke-width:0.5;"/><text fill="#000000" font-family="sans-serif" font-size="14" lengthAdjust="spacing" textLength="108.9033" x="695.838" y="143.7435">Publicar evento</text></g><g id="elem_UC5"><ellipse cx="753.2939" cy="210.0048" fill="#F1F1F1" rx="75.8239" ry="17.5648" style="stroke:#181818;stroke-width:0.5;"/><text fill="#000000" font-family="sans-serif" font-size="14" lengthAdjust="spacing" textLength="108.124" x="696.2319" y="213.7523">Ver publicaci&#243;n</text></g><g id="elem_UC6"><ellipse cx="1014.1855" cy="210.0033" fill="#F1F1F1" rx="61.7755" ry="14.7833" style="stroke:#181818;stroke-width:0.5;"/><text fill="#000000" font-family="sans-serif" font-size="14" lengthAdjust="spacing" textLength="69.2891" x="976.541" y="213.7509">Comentar</text></g><g id="elem_UC7"><ellipse cx="753.288" cy="71.0016" fill="#F1F1F1" rx="70.558" ry="16.5116" style="stroke:#181818;stroke-width:0.5;"/><text fill="#000000" font-family="sans-serif" font-size="14" lengthAdjust="spacing" textLength="94.3359" x="703.12" y="74.7492">Editar evento</text></g><g id="elem_UC8"><ellipse cx="452.7416" cy="355.0003" fill="#F1F1F1" rx="75.9016" ry="17.5803" style="stroke:#181818;stroke-width:0.5;"/><text fill="#000000" font-family="sans-serif" font-size="14" lengthAdjust="spacing" textLength="108.3223" x="395.5805" y="358.7479">Gestionar perfil</text></g><g id="elem_UC9"><ellipse cx="452.7428" cy="423.9986" fill="#F1F1F1" rx="70.1428" ry="16.4286" style="stroke:#181818;stroke-width:0.5;"/><text fill="#000000" font-family="sans-serif" font-size="14" lengthAdjust="spacing" textLength="93.2148" x="403.1353" y="427.7461">Cerrar sesi&#243;n</text></g><g id="elem_UC10"><ellipse cx="452.7366" cy="61.9993" fill="#F1F1F1" rx="90.4966" ry="20.4993" style="stroke:#181818;stroke-width:0.5;"/><text fill="#000000" font-family="sans-serif" font-size="14" lengthAdjust="spacing" textLength="142.8643" x="381.3045" y="64.846">Verificar publicaci&#243;n</text></g><g id="elem_UC11"><ellipse cx="452.7372" cy="495.9974" fill="#F1F1F1" rx="91.3872" ry="20.6774" style="stroke:#181818;stroke-width:0.5;"/><text fill="#000000" font-family="sans-serif" font-size="14" lengthAdjust="spacing" textLength="144.874" x="380.3002" y="498.8441">Consultar calendario</text></g><!--entity admin--><g id="elem_admin"><ellipse cx="204.2581" cy="21.35" fill="#F1F1F1" rx="8" ry="8" style="stroke:#181818;stroke-width:0.5;"/><path d="M204.2581,29.35 L204.2581,56.35 M191.2581,37.35 L217.2581,37.35 M204.2581,56.35 L191.2581,71.35 M204.2581,56.35 L217.2581,71.35 " fill="none" style="stroke:#181818;stroke-width:0.5;"/><text fill="#000000" font-family="sans-serif" font-size="14" lengthAdjust="spacing" textLength="168.1162" x="120.2" y="85.8451">Personal_administrativo</text></g><!--entity user--><g id="elem_user"><ellipse cx="32.6021" cy="254.35" fill="#F1F1F1" rx="8" ry="8" style="stroke:#181818;stroke-width:0.5;"/><path d="M32.6021,262.35 L32.6021,289.35 M19.6021,270.35 L45.6021,270.35 M32.6021,289.35 L19.6021,304.35 M32.6021,289.35 L45.6021,304.35 " fill="none" style="stroke:#181818;stroke-width:0.5;"/><text fill="#000000" font-family="sans-serif" font-size="14" lengthAdjust="spacing" textLength="53.2041" x="6" y="318.8451">Usuario</text></g><!--reverse link user to admin--><g id="link_user_admin"><path d="M41.2797,227.75 C47.4697,191 58.45,153.55 89.2,116 C97.72,105.6 108.38,96.54 119.72,88.75 " fill="none" id="user-backto-admin" style="stroke:#181818;stroke-width:1;"/><polygon fill="none" points="38.29,245.5,47.1964,228.7466,35.3631,226.7535,38.29,245.5" style="stroke:#181818;stroke-width:1;"/></g><!--link admin to UC10--><g id="link_admin_UC10"><path d="M288.71,54.72 C312.87,55.8 333.326,56.7125 357.746,57.8025 " fill="none" id="admin-to-UC10" style="stroke:#181818;stroke-width:1;"/><polygon fill="#181818" points="363.74,58.07,354.9273,53.6727,358.745,57.847,354.5706,61.6647,363.74,58.07" style="stroke:#181818;stroke-width:1;"/></g><!--link user to UC11--><g id="link_user_UC11"><path d="M53.92,322.55 C69.05,347.73 91.94,379.45 120.2,399 C195.55,451.1 293.0937,474.6228 364.2937,485.8828 " fill="none" id="user-to-UC11" style="stroke:#181818;stroke-width:1;"/><polygon fill="#181818" points="370.22,486.82,361.9553,481.4633,365.2814,486.039,360.7057,489.3651,370.22,486.82" style="stroke:#181818;stroke-width:1;"/></g><!--link user to UC8--><g id="link_user_UC8"><path d="M59.44,288.39 C124.7,299.47 291.6246,327.816 384.5946,343.596 " fill="none" id="user-to-UC8" style="stroke:#181818;stroke-width:1;"/><polygon fill="#181818" points="390.51,344.6,382.3063,339.1504,385.5805,343.7633,380.9675,347.0375,390.51,344.6" style="stroke:#181818;stroke-width:1;"/></g><!--reverse link UC3 to UC7--><g id="link_UC3_UC7"><path d="M530.3357,122.2982 C584.9957,109.6582 653.45,93.84 702.11,82.6 " fill="none" id="UC3-backto-UC7" style="stroke:#181818;stroke-width:1;stroke-dasharray:7.0,7.0;"/><polygon fill="#181818" points="524.49,123.65,534.1598,125.5194,529.3614,122.5235,532.3574,117.7251,524.49,123.65" style="stroke:#181818;stroke-width:1;"/><text fill="#000000" font-family="sans-serif" font-size="13" lengthAdjust="spacing" textLength="61.1851" x="585.16" y="94.0669">&#171;extend&#187;</text></g><!--reverse link UC3 to UC4--><g id="link_UC3_UC4"><path d="M560.4,140 C600.52,140 639.9,140 677.07,140 " fill="none" id="UC3-backto-UC4" style="stroke:#181818;stroke-width:1;stroke-dasharray:7.0,7.0;"/><polygon fill="#181818" points="554.4,140,563.4,144,559.4,140,563.4,136,554.4,140" style="stroke:#181818;stroke-width:1;"/><text fill="#000000" font-family="sans-serif" font-size="13" lengthAdjust="spacing" textLength="61.1851" x="585.16" y="136.0669">&#171;extend&#187;</text></g><!--reverse link UC3 to UC5--><g id="link_UC3_UC5"><path d="M529.9516,157.8697 C583.3916,170.3997 649.93,186 698.72,197.44 " fill="none" id="UC3-backto-UC5" style="stroke:#181818;stroke-width:1;stroke-dasharray:7.0,7.0;"/><polygon fill="#181818" points="524.11,156.5,531.9593,162.4489,528.978,157.6414,533.7855,154.6601,524.11,156.5" style="stroke:#181818;stroke-width:1;"/><text fill="#000000" font-family="sans-serif" font-size="13" lengthAdjust="spacing" textLength="61.1851" x="585.16" y="167.0669">&#171;extend&#187;</text></g><!--reverse link UC5 to UC6--><g id="link_UC5_UC6"><path d="M835.52,210 C874.49,210 915.46,210 952.14,210 " fill="none" id="UC5-backto-UC6" style="stroke:#181818;stroke-width:1;stroke-dasharray:7.0,7.0;"/><polygon fill="#181818" points="829.52,210,838.52,214,834.52,210,838.52,206,829.52,210" style="stroke:#181818;stroke-width:1;"/><text fill="#000000" font-family="sans-serif" font-size="13" lengthAdjust="spacing" textLength="61.1851" x="860.42" y="206.0669">&#171;extend&#187;</text></g><!--link user to UC9--><g id="link_user_UC9"><path d="M59.49,302.19 C76.19,313.23 98.72,326.91 120.2,336 C213.17,375.32 322.4786,400.0136 389.7186,412.9836 " fill="none" id="user-to-UC9" style="stroke:#181818;stroke-width:1;"/><polygon fill="#181818" points="395.61,414.12,387.5305,408.4878,390.7005,413.173,386.0153,416.343,395.61,414.12" style="stroke:#181818;stroke-width:1;"/></g><!--link user to UC1--><g id="link_user_UC1"><path d="M59.53,269.8 C68.66,265.36 79.16,260.88 89.2,258 C189.01,229.4 303.4667,219.664 377.3267,216.164 " fill="none" id="user-to-UC1" style="stroke:#181818;stroke-width:1;"/><polygon fill="#181818" points="383.32,215.88,374.1408,212.3105,378.3256,216.1167,374.5194,220.3015,383.32,215.88" style="stroke:#181818;stroke-width:1;"/></g><!--link user to UC2--><g id="link_user_UC2"><path d="M59.44,284 C120.52,284 269.82,284 365.69,284 " fill="none" id="user-to-UC2" style="stroke:#181818;stroke-width:1;"/><polygon fill="#181818" points="371.69,284,362.69,280,366.69,284,362.69,288,371.69,284" style="stroke:#181818;stroke-width:1;"/></g><!--link user to UC3--><g id="link_user_UC3"><path d="M59.54,254.91 C75.4,239.13 97.05,220.88 120.2,211 C197.9,177.86 286.7194,160.4021 355.0094,150.7221 " fill="none" id="user-to-UC3" style="stroke:#181818;stroke-width:1;"/><polygon fill="#181818" points="360.95,149.88,351.4777,147.1827,355.9995,150.5817,352.6005,155.1035,360.95,149.88" style="stroke:#181818;stroke-width:1;"/></g><!--SRC=[TP7FJW8n4CRlVOe9zoKk_mH3E4YCyKOqU2MrEy0afJNJBfgeJ-NDAozcjwnPkaXFxJU_plTrAfMt30jaPutKArdio93pB3tjBKW7KH4oOajNIgOebmvPQ5nxy1QODbiF1J4gJzQ8gWZJpoohRukg8Cr68zmUVhPszMGLIVqX8Am0A-aGEW-6WihWqD7XstGgc-KyJw57tCHu7AGOfiPwAJQtnfNQ1-orVD6af0gvqDLmFuKNHuG1zsZyNyT12ZtZIQycth3jkmij9DVLKLgzAyYtRQvJv1vTDS8gEFAQT4sDMpR8V3QfoLbWMiTd_HCxlxeqBoKrck9aidaklaJyHyYoMRmQ__Tuo4KynSDOXET0j-o6VHzkfbDyzw7NR1RqmGLzU44VrVemqQDLOTzCPJTfdFDcssks_Ly0]--></g></svg>