<svg xmlns="http://www.w3.org/2000/svg" xmlns:xlink="http://www.w3.org/1999/xlink" contentStyleType="text/css" data-diagram-type="DESCRIPTION" height="920px" preserveAspectRatio="none" style="width:723px;height:920px;background:#FFFFFF;" version="1.1" viewBox="0 0 723 920" width="723px" zoomAndPan="magnify"><defs/><g><!--cluster B?ho_Social--><g id="cluster_B&#250;ho_Social"><rect fill="#FFFFFF" fill-opacity="0.00000" height="798" rx="2.5" ry="2.5" style="stroke:#181818;stroke-width:1;" width="513.28" x="204.26" y="116.65"/><text fill="#000000" font-family="sans-serif" font-size="14" font-weight="bold" lengthAdjust="spacing" textLength="94.2676" x="413.7662" y="131.6451">B&#250;ho_Social</text></g><g id="elem_UC1"><ellipse cx="321.6792" cy="243.6538" fill="#F1F1F1" rx="69.6192" ry="16.3238" style="stroke:#181818;stroke-width:0.5;"/><text fill="#000000" font-family="sans-serif" font-size="14" lengthAdjust="spacing" textLength="91.793" x="272.7827" y="247.4014">Iniciar sesi&#243;n</text></g><g id="elem_UC2"><ellipse cx="321.6836" cy="879.6547" fill="#F1F1F1" rx="80.7236" ry="18.5447" style="stroke:#181818;stroke-width:0.5;"/><text fill="#000000" font-family="sans-serif" font-size="14" lengthAdjust="spacing" textLength="120.2715" x="260.1513" y="882.9548">Registrar usuario</text></g><g id="elem_UC3"><ellipse cx="321.6788" cy="589.6538" fill="#F1F1F1" rx="101.4188" ry="22.6838" style="stroke:#181818;stroke-width:0.5;"/><text fill="#000000" font-family="sans-serif" font-size="14" lengthAdjust="spacing" textLength="167.1797" x="238.089" y="592.5004">Consultar publicaciones</text></g><g id="elem_UC4"><ellipse cx="321.6797" cy="312.6459" fill="#F1F1F1" rx="76.1297" ry="17.6259" style="stroke:#181818;stroke-width:0.5;"/><text fill="#000000" font-family="sans-serif" font-size="14" lengthAdjust="spacing" textLength="108.9033" x="264.228" y="316.3935">Publicar evento</text></g><g id="elem_UC5"><ellipse cx="321.6839" cy="808.6548" fill="#F1F1F1" rx="75.8239" ry="17.5648" style="stroke:#181818;stroke-width:0.5;"/><text fill="#000000" font-family="sans-serif" font-size="14" lengthAdjust="spacing" textLength="108.124" x="264.6219" y="812.4023">Ver publicaci&#243;n</text></g><g id="elem_UC6"><ellipse cx="321.6755" cy="379.6533" fill="#F1F1F1" rx="61.7755" ry="14.7833" style="stroke:#181818;stroke-width:0.5;"/><text fill="#000000" font-family="sans-serif" font-size="14" lengthAdjust="spacing" textLength="69.2891" x="284.031" y="383.4009">Comentar</text></g><g id="elem_UC7"><ellipse cx="321.678" cy="445.6516" fill="#F1F1F1" rx="70.558" ry="16.5116" style="stroke:#181818;stroke-width:0.5;"/><text fill="#000000" font-family="sans-serif" font-size="14" lengthAdjust="spacing" textLength="94.3359" x="271.51" y="449.3992">Editar evento</text></g><g id="elem_UC8"><ellipse cx="321.6816" cy="514.6503" fill="#F1F1F1" rx="75.9016" ry="17.5803" style="stroke:#181818;stroke-width:0.5;"/><text fill="#000000" font-family="sans-serif" font-size="14" lengthAdjust="spacing" textLength="108.3223" x="264.5205" y="518.3979">Gestionar perfil</text></g><g id="elem_UC9"><ellipse cx="321.6828" cy="663.6486" fill="#F1F1F1" rx="70.1428" ry="16.4286" style="stroke:#181818;stroke-width:0.5;"/><text fill="#000000" font-family="sans-serif" font-size="14" lengthAdjust="spacing" textLength="93.2148" x="272.0753" y="667.3961">Cerrar sesi&#243;n</text></g><g id="elem_UC10"><ellipse cx="321.6766" cy="171.6493" fill="#F1F1F1" rx="90.4966" ry="20.4993" style="stroke:#181818;stroke-width:0.5;"/><text fill="#000000" font-family="sans-serif" font-size="14" lengthAdjust="spacing" textLength="142.8643" x="250.2445" y="174.496">Verificar publicaci&#243;n</text></g><g id="elem_UC11"><ellipse cx="321.6772" cy="735.6474" fill="#F1F1F1" rx="91.3872" ry="20.6774" style="stroke:#181818;stroke-width:0.5;"/><text fill="#000000" font-family="sans-serif" font-size="14" lengthAdjust="spacing" textLength="144.874" x="249.2402" y="738.4941">Consultar calendario</text></g><g id="elem_UC12"><ellipse cx="615.8199" cy="589.654" fill="#F1F1F1" rx="85.7199" ry="19.544" style="stroke:#181818;stroke-width:0.5;"/><text fill="#000000" font-family="sans-serif" font-size="14" lengthAdjust="spacing" textLength="131.9814" x="549.8292" y="592.5007">Buscar publicaci&#243;n</text></g><!--entity admin--><g id="elem_admin"><ellipse cx="321.6732" cy="14" fill="#F1F1F1" rx="8" ry="8" style="stroke:#181818;stroke-width:0.5;"/><path d="M321.6732,22 L321.6732,49 M308.6732,30 L334.6732,30 M321.6732,49 L308.6732,64 M321.6732,49 L334.6732,64 " fill="#FFFFFF" fill-opacity="0.00000" style="stroke:#181818;stroke-width:0.5;"/><text fill="#000000" font-family="sans-serif" font-size="14" lengthAdjust="spacing" textLength="165.5664" x="238.89" y="78.4951">Personal administrativo</text></g><!--entity user--><g id="elem_user"><ellipse cx="81.6321" cy="470" fill="#F1F1F1" rx="8" ry="8" style="stroke:#181818;stroke-width:0.5;"/><path d="M81.6321,478 L81.6321,505 M68.6321,486 L94.6321,486 M81.6321,505 L68.6321,520 M81.6321,505 L94.6321,520 " fill="#FFFFFF" fill-opacity="0.00000" style="stroke:#181818;stroke-width:0.5;"/><text fill="#000000" font-family="sans-serif" font-size="14" lengthAdjust="spacing" textLength="53.2041" x="55.03" y="534.4951">Usuario</text></g><!--entity userR--><g id="elem_userR"><ellipse cx="81.6294" cy="739" fill="#F1F1F1" rx="8" ry="8" style="stroke:#181818;stroke-width:0.5;"/><path d="M81.6294,747 L81.6294,774 M68.6294,755 L94.6294,755 M81.6294,774 L68.6294,789 M81.6294,774 L94.6294,789 " fill="#FFFFFF" fill-opacity="0.00000" style="stroke:#181818;stroke-width:0.5;"/><text fill="#000000" font-family="sans-serif" font-size="14" lengthAdjust="spacing" textLength="151.2588" x="6" y="803.4951">Usuario no registrado</text></g><!--link admin to UC10--><g id="link_admin_UC10"><path d="M321.68,82.19 C321.68,105.1 321.68,128 321.68,150.9 " fill="#FFFFFF" fill-opacity="0.00000" id="admin-UC10" style="stroke:#181818;stroke-width:1;"/></g><!--link user to UC1--><g id="link_user_UC1"><path d="M91.9,461.39 C105.94,411.62 137.45,325.43 196.26,277.65 C213.64,263.53 236.43,255.25 257.74,250.41 " fill="#FFFFFF" fill-opacity="0.00000" id="user-UC1" style="stroke:#181818;stroke-width:1;"/></g><!--link user to UC2--><g id="link_user_UC2"><path d="M96.57,537.97 C111.91,580.5 137.08,651.23 157.26,712.65 C171.91,757.26 175.32,768.51 188.26,813.65 C192.06,826.91 186.6,833.79 196.26,843.65 C210.1,857.79 229.13,866.46 248.14,871.75 " fill="#FFFFFF" fill-opacity="0.00000" id="user-UC2" style="stroke:#181818;stroke-width:1;"/></g><!--link user to UC3--><g id="link_user_UC3"><path d="M108.49,511.94 C131.31,522.58 165.63,538.02 196.26,549.65 C216.62,557.38 239.21,564.94 259.49,571.36 " fill="#FFFFFF" fill-opacity="0.00000" id="user-UC3" style="stroke:#181818;stroke-width:1;"/></g><!--reverse link UC3 to UC12--><g id="link_UC3_UC12"><path d="M429.22,589.65 C463.88,589.65 496.34,589.65 529.65,589.65 " fill="#FFFFFF" fill-opacity="0.00000" id="UC3-backto-UC12" style="stroke:#181818;stroke-width:1;stroke-dasharray:7.0,7.0;"/><polygon fill="#181818" points="423.22,589.65,432.22,593.65,428.22,589.65,432.22,585.65,423.22,589.65" style="stroke:#181818;stroke-width:1;"/><text fill="#000000" font-family="sans-serif" font-size="13" lengthAdjust="spacing" textLength="45.2778" x="454.1" y="585.7169">extend</text></g><!--link user to UC4--><g id="link_user_UC4"><path d="M101.89,461.17 C121.17,426.5 154.02,376.64 196.26,347.65 C214.11,335.4 236.18,327.41 256.76,322.21 " fill="#FFFFFF" fill-opacity="0.00000" id="user-UC4" style="stroke:#181818;stroke-width:1;"/></g><!--link user to UC5--><g id="link_user_UC5"><path d="M94.02,538.15 C114.68,605.62 159.62,741.13 196.26,773.65 C211.87,787.5 232.55,795.91 252.57,801 " fill="#FFFFFF" fill-opacity="0.00000" id="user-UC5" style="stroke:#181818;stroke-width:1;"/></g><!--link user to UC6--><g id="link_user_UC6"><path d="M108.53,474.55 C130.3,454.76 163.09,427.89 196.26,411.65 C219.09,400.47 246.26,392.9 269.38,387.94 " fill="#FFFFFF" fill-opacity="0.00000" id="user-UC6" style="stroke:#181818;stroke-width:1;"/></g><!--link user to UC7--><g id="link_user_UC7"><path d="M108.56,493.77 C147.12,485.02 220.34,468.41 269.83,457.18 " fill="#FFFFFF" fill-opacity="0.00000" id="user-UC7" style="stroke:#181818;stroke-width:1;"/></g><!--link user to UC8--><g id="link_user_UC8"><path d="M108.56,501.28 C141.76,503.38 200.64,507.09 247.96,510.07 " fill="#FFFFFF" fill-opacity="0.00000" id="user-UC8" style="stroke:#181818;stroke-width:1;"/></g><!--link user to UC9--><g id="link_user_UC9"><path d="M107,538.16 C127.43,567.4 159.17,606.42 196.26,629.65 C215.8,641.89 239.76,649.79 261.42,654.85 " fill="#FFFFFF" fill-opacity="0.00000" id="user-UC9" style="stroke:#181818;stroke-width:1;"/></g><!--link user to UC11--><g id="link_user_UC11"><path d="M94.93,538.24 C111.14,582.98 143.89,655.89 196.26,697.65 C211.09,709.48 229.59,717.63 247.74,723.26 " fill="#FFFFFF" fill-opacity="0.00000" id="user-UC11" style="stroke:#181818;stroke-width:1;"/></g><!--reverse link user to admin--><g id="link_user_admin"><path d="M89.0068,443.2371 C98.0768,372.7371 122.96,238.68 196.26,135.65 C211.13,114.74 232.22,96.63 252.82,82.14 " fill="#FFFFFF" fill-opacity="0.00000" id="user-backto-admin" style="stroke:#181818;stroke-width:1;"/><polygon fill="#FFFFFF" fill-opacity="0.00000" points="86.71,461.09,94.9578,444.0027,83.0559,442.4715,86.71,461.09" style="stroke:#181818;stroke-width:1;"/></g><!--link userR to UC3--><g id="link_userR_UC3"><path d="M105.27,730.12 C125.47,698.89 157.75,655.89 196.26,629.65 C211.63,619.17 229.92,611.3 247.68,605.44 " fill="#FFFFFF" fill-opacity="0.00000" id="userR-UC3" style="stroke:#181818;stroke-width:1;"/></g><!--link userR to UC5--><g id="link_userR_UC5"><path d="M157.62,781.25 C190.33,786.75 228.2,793.11 259.21,798.32 " fill="#FFFFFF" fill-opacity="0.00000" id="userR-UC5" style="stroke:#181818;stroke-width:1;"/></g><!--link userR to UC2--><g id="link_userR_UC2"><path d="M133.88,807.22 C152.77,820.13 174.8,833.74 196.26,843.65 C217.08,853.26 241.06,860.93 262.38,866.68 " fill="#FFFFFF" fill-opacity="0.00000" id="userR-UC2" style="stroke:#181818;stroke-width:1;"/></g><!--link userR to UC11--><g id="link_userR_UC11"><path d="M157.62,758.25 C184.74,754.49 215.41,750.24 242.78,746.45 " fill="#FFFFFF" fill-opacity="0.00000" id="userR-UC11" style="stroke:#181818;stroke-width:1;"/></g><!--SRC=[TLBBJiCm4BpxAwpSKv7qZH27LWXnguhA5HbdcwxasiXsAYJWgxXnxO_XEAxJf3IdoUpipcIpZ5kbQR82RPHaWh9YZnADrSpYGIMKcOOYp0itfc8QLKrN1dHWanCj5TLG-lQYQQvLQo9WQwbrHIntbXQeWLjKaX1I8oPB0NHn_DsfrsV5aObFGjtZUZapG9CdYOxLr831uu_qWpVBh2jQ1sFjA9ycoFAkRAcagOHrilVgJI1dt0K14yJ3hdZLI3I50qXxcZZgYbxWR5ORRzpttRiHJ8Vgf5jzAD3sRQPToIEOUcTrSD1R544rwzc0rXURcby4ngt_h7zYPpVNziMP05cSRJRh_O55PQuDpSatyNUKfjwYFWiF8yeZ6fAwWGwgmRrxeRVmOPrlB8yY6aSqYMWQqIoYUMlN-D6xhpGDT-qFjB6DSDp2l8LPzWS0]--></g></svg>