<svg xmlns="http://www.w3.org/2000/svg" xmlns:xlink="http://www.w3.org/1999/xlink" contentStyleType="text/css" height="988px" preserveAspectRatio="none" style="width:950px;height:988px;background:#FFFFFF;" version="1.1" viewBox="0 0 950 988" width="950px" zoomAndPan="magnify"><defs/><g><!--class Campus--><g id="elem_Campus"><rect codeLine="3" fill="#F1F1F1" height="32" id="Campus" rx="2.5" ry="2.5" style="stroke:#181818;stroke-width:0.5;" width="89.0459" x="598.99" y="676"/><ellipse cx="613.99" cy="692" fill="#ADD1B2" rx="11" ry="11" style="stroke:#181818;stroke-width:1;"/><path d="M616.9588,697.6406 Q616.3806,697.9375 615.74,698.0781 Q615.0994,698.2344 614.3963,698.2344 Q611.8963,698.2344 610.5681,696.5938 Q609.2556,694.9375 609.2556,691.8125 Q609.2556,688.6875 610.5681,687.0313 Q611.8963,685.375 614.3963,685.375 Q615.0994,685.375 615.74,685.5313 Q616.3963,685.6875 616.9588,685.9844 L616.9588,688.7031 Q616.3338,688.125 615.74,687.8594 Q615.1463,687.5781 614.5213,687.5781 Q613.1775,687.5781 612.49,688.6563 Q611.8025,689.7188 611.8025,691.8125 Q611.8025,693.9063 612.49,694.9844 Q613.1775,696.0469 614.5213,696.0469 Q615.1463,696.0469 615.74,695.7813 Q616.3338,695.5 616.9588,694.9219 L616.9588,697.6406 Z " fill="#000000"/><text fill="#000000" font-family="sans-serif" font-size="14" lengthAdjust="spacing" textLength="57.0459" x="627.99" y="696.8467">Campus</text></g><!--class Estudiante--><g id="elem_Estudiante"><rect codeLine="4" fill="#F1F1F1" height="32" id="Estudiante" rx="2.5" ry="2.5" style="stroke:#181818;stroke-width:0.5;" width="106.833" x="292.31" y="348"/><ellipse cx="307.31" cy="364" fill="#ADD1B2" rx="11" ry="11" style="stroke:#181818;stroke-width:1;"/><path d="M310.2788,369.6406 Q309.7006,369.9375 309.06,370.0781 Q308.4194,370.2344 307.7163,370.2344 Q305.2163,370.2344 303.8881,368.5938 Q302.5756,366.9375 302.5756,363.8125 Q302.5756,360.6875 303.8881,359.0313 Q305.2163,357.375 307.7163,357.375 Q308.4194,357.375 309.06,357.5313 Q309.7163,357.6875 310.2788,357.9844 L310.2788,360.7031 Q309.6538,360.125 309.06,359.8594 Q308.4663,359.5781 307.8413,359.5781 Q306.4975,359.5781 305.81,360.6563 Q305.1225,361.7188 305.1225,363.8125 Q305.1225,365.9063 305.81,366.9844 Q306.4975,368.0469 307.8413,368.0469 Q308.4663,368.0469 309.06,367.7813 Q309.6538,367.5 310.2788,366.9219 L310.2788,369.6406 Z " fill="#000000"/><text fill="#000000" font-family="sans-serif" font-size="14" lengthAdjust="spacing" textLength="74.833" x="321.31" y="368.8467">Estudiante</text></g><!--class Profesor--><g id="elem_Profesor"><rect codeLine="5" fill="#F1F1F1" height="32" id="Profesor" rx="2.5" ry="2.5" style="stroke:#181818;stroke-width:0.5;" width="89.9209" x="300.77" y="748"/><ellipse cx="315.77" cy="764" fill="#ADD1B2" rx="11" ry="11" style="stroke:#181818;stroke-width:1;"/><path d="M318.7388,769.6406 Q318.1606,769.9375 317.52,770.0781 Q316.8794,770.2344 316.1763,770.2344 Q313.6763,770.2344 312.3481,768.5938 Q311.0356,766.9375 311.0356,763.8125 Q311.0356,760.6875 312.3481,759.0313 Q313.6763,757.375 316.1763,757.375 Q316.8794,757.375 317.52,757.5313 Q318.1763,757.6875 318.7388,757.9844 L318.7388,760.7031 Q318.1138,760.125 317.52,759.8594 Q316.9263,759.5781 316.3013,759.5781 Q314.9575,759.5781 314.27,760.6563 Q313.5825,761.7188 313.5825,763.8125 Q313.5825,765.9063 314.27,766.9844 Q314.9575,768.0469 316.3013,768.0469 Q316.9263,768.0469 317.52,767.7813 Q318.1138,767.5 318.7388,766.9219 L318.7388,769.6406 Z " fill="#000000"/><text fill="#000000" font-family="sans-serif" font-size="14" lengthAdjust="spacing" textLength="57.9209" x="329.77" y="768.8467">Profesor</text></g><!--class class1--><g id="elem_class1"><rect codeLine="6" fill="#F1F1F1" height="32" id="class1" rx="2.5" ry="2.5" style="stroke:#181818;stroke-width:0.5;" width="161.2949" x="265.08" y="681"/><ellipse cx="280.08" cy="697" fill="#ADD1B2" rx="11" ry="11" style="stroke:#181818;stroke-width:1;"/><path d="M283.0488,702.6406 Q282.4706,702.9375 281.83,703.0781 Q281.1894,703.2344 280.4863,703.2344 Q277.9863,703.2344 276.6581,701.5938 Q275.3456,699.9375 275.3456,696.8125 Q275.3456,693.6875 276.6581,692.0313 Q277.9863,690.375 280.4863,690.375 Q281.1894,690.375 281.83,690.5313 Q282.4863,690.6875 283.0488,690.9844 L283.0488,693.7031 Q282.4238,693.125 281.83,692.8594 Q281.2363,692.5781 280.6113,692.5781 Q279.2675,692.5781 278.58,693.6563 Q277.8925,694.7188 277.8925,696.8125 Q277.8925,698.9063 278.58,699.9844 Q279.2675,701.0469 280.6113,701.0469 Q281.2363,701.0469 281.83,700.7813 Q282.4238,700.5 283.0488,699.9219 L283.0488,702.6406 Z " fill="#000000"/><text fill="#000000" font-family="sans-serif" font-size="14" lengthAdjust="spacing" textLength="129.2949" x="294.08" y="701.8467">Personal de apoyo</text></g><!--class Actividad--><g id="elem_Actividad"><rect codeLine="7" fill="#F1F1F1" height="32" id="Actividad" rx="2.5" ry="2.5" style="stroke:#181818;stroke-width:0.5;" width="97.1807" x="594.93" y="465"/><ellipse cx="609.93" cy="481" fill="#ADD1B2" rx="11" ry="11" style="stroke:#181818;stroke-width:1;"/><path d="M612.8988,486.6406 Q612.3206,486.9375 611.68,487.0781 Q611.0394,487.2344 610.3363,487.2344 Q607.8363,487.2344 606.5081,485.5938 Q605.1956,483.9375 605.1956,480.8125 Q605.1956,477.6875 606.5081,476.0313 Q607.8363,474.375 610.3363,474.375 Q611.0394,474.375 611.68,474.5313 Q612.3363,474.6875 612.8988,474.9844 L612.8988,477.7031 Q612.2738,477.125 611.68,476.8594 Q611.0863,476.5781 610.4613,476.5781 Q609.1175,476.5781 608.43,477.6563 Q607.7425,478.7188 607.7425,480.8125 Q607.7425,482.9063 608.43,483.9844 Q609.1175,485.0469 610.4613,485.0469 Q611.0863,485.0469 611.68,484.7813 Q612.2738,484.5 612.8988,483.9219 L612.8988,486.6406 Z " fill="#000000"/><text fill="#000000" font-family="sans-serif" font-size="14" lengthAdjust="spacing" textLength="65.1807" x="623.93" y="485.8467">Actividad</text></g><!--class Seminario--><g id="elem_Seminario"><rect codeLine="8" fill="#F1F1F1" height="32" id="Seminario" rx="2.5" ry="2.5" style="stroke:#181818;stroke-width:0.5;" width="102.6904" x="294.38" y="476"/><ellipse cx="309.38" cy="492" fill="#ADD1B2" rx="11" ry="11" style="stroke:#181818;stroke-width:1;"/><path d="M312.3488,497.6406 Q311.7706,497.9375 311.13,498.0781 Q310.4894,498.2344 309.7863,498.2344 Q307.2863,498.2344 305.9581,496.5938 Q304.6456,494.9375 304.6456,491.8125 Q304.6456,488.6875 305.9581,487.0313 Q307.2863,485.375 309.7863,485.375 Q310.4894,485.375 311.13,485.5313 Q311.7863,485.6875 312.3488,485.9844 L312.3488,488.7031 Q311.7238,488.125 311.13,487.8594 Q310.5363,487.5781 309.9113,487.5781 Q308.5675,487.5781 307.88,488.6563 Q307.1925,489.7188 307.1925,491.8125 Q307.1925,493.9063 307.88,494.9844 Q308.5675,496.0469 309.9113,496.0469 Q310.5363,496.0469 311.13,495.7813 Q311.7238,495.5 312.3488,494.9219 L312.3488,497.6406 Z " fill="#000000"/><text fill="#000000" font-family="sans-serif" font-size="14" lengthAdjust="spacing" textLength="70.6904" x="323.38" y="496.8467">Seminario</text></g><!--class Taller--><g id="elem_Taller"><rect codeLine="9" fill="#F1F1F1" height="32" id="Taller" rx="2.5" ry="2.5" style="stroke:#181818;stroke-width:0.5;" width="71.2793" x="310.09" y="543"/><ellipse cx="325.09" cy="559" fill="#ADD1B2" rx="11" ry="11" style="stroke:#181818;stroke-width:1;"/><path d="M328.0588,564.6406 Q327.4806,564.9375 326.84,565.0781 Q326.1994,565.2344 325.4963,565.2344 Q322.9963,565.2344 321.6681,563.5938 Q320.3556,561.9375 320.3556,558.8125 Q320.3556,555.6875 321.6681,554.0313 Q322.9963,552.375 325.4963,552.375 Q326.1994,552.375 326.84,552.5313 Q327.4963,552.6875 328.0588,552.9844 L328.0588,555.7031 Q327.4338,555.125 326.84,554.8594 Q326.2463,554.5781 325.6213,554.5781 Q324.2775,554.5781 323.59,555.6563 Q322.9025,556.7188 322.9025,558.8125 Q322.9025,560.9063 323.59,561.9844 Q324.2775,563.0469 325.6213,563.0469 Q326.2463,563.0469 326.84,562.7813 Q327.4338,562.5 328.0588,561.9219 L328.0588,564.6406 Z " fill="#000000"/><text fill="#000000" font-family="sans-serif" font-size="14" lengthAdjust="spacing" textLength="39.2793" x="339.09" y="563.8467">Taller</text></g><!--class Carrera--><g id="elem_Carrera"><rect codeLine="10" fill="#F1F1F1" height="32" id="Carrera" rx="2.5" ry="2.5" style="stroke:#181818;stroke-width:0.5;" width="84.8145" x="601.11" y="280"/><ellipse cx="616.11" cy="296" fill="#ADD1B2" rx="11" ry="11" style="stroke:#181818;stroke-width:1;"/><path d="M619.0788,301.6406 Q618.5006,301.9375 617.86,302.0781 Q617.2194,302.2344 616.5163,302.2344 Q614.0163,302.2344 612.6881,300.5938 Q611.3756,298.9375 611.3756,295.8125 Q611.3756,292.6875 612.6881,291.0313 Q614.0163,289.375 616.5163,289.375 Q617.2194,289.375 617.86,289.5313 Q618.5163,289.6875 619.0788,289.9844 L619.0788,292.7031 Q618.4538,292.125 617.86,291.8594 Q617.2663,291.5781 616.6413,291.5781 Q615.2975,291.5781 614.61,292.6563 Q613.9225,293.7188 613.9225,295.8125 Q613.9225,297.9063 614.61,298.9844 Q615.2975,300.0469 616.6413,300.0469 Q617.2663,300.0469 617.86,299.7813 Q618.4538,299.5 619.0788,298.9219 L619.0788,301.6406 Z " fill="#000000"/><text fill="#000000" font-family="sans-serif" font-size="14" lengthAdjust="spacing" textLength="52.8145" x="630.11" y="300.8467">Carrera</text></g><!--class class2--><g id="elem_class2"><rect codeLine="11" fill="#F1F1F1" height="32" id="class2" rx="2.5" ry="2.5" style="stroke:#181818;stroke-width:0.5;" width="152.9414" x="567.05" y="369"/><ellipse cx="582.05" cy="385" fill="#ADD1B2" rx="11" ry="11" style="stroke:#181818;stroke-width:1;"/><path d="M585.0188,390.6406 Q584.4406,390.9375 583.8,391.0781 Q583.1594,391.2344 582.4563,391.2344 Q579.9563,391.2344 578.6281,389.5938 Q577.3156,387.9375 577.3156,384.8125 Q577.3156,381.6875 578.6281,380.0313 Q579.9563,378.375 582.4563,378.375 Q583.1594,378.375 583.8,378.5313 Q584.4563,378.6875 585.0188,378.9844 L585.0188,381.7031 Q584.3938,381.125 583.8,380.8594 Q583.2063,380.5781 582.5813,380.5781 Q581.2375,380.5781 580.55,381.6563 Q579.8625,382.7188 579.8625,384.8125 Q579.8625,386.9063 580.55,387.9844 Q581.2375,389.0469 582.5813,389.0469 Q583.2063,389.0469 583.8,388.7813 Q584.3938,388.5 585.0188,387.9219 L585.0188,390.6406 Z " fill="#000000"/><text fill="#000000" font-family="sans-serif" font-size="14" lengthAdjust="spacing" textLength="120.9414" x="596.05" y="389.8467">Grupo de estudio</text></g><!--class Club--><g id="elem_Club"><rect codeLine="12" fill="#F1F1F1" height="32" id="Club" rx="2.5" ry="2.5" style="stroke:#181818;stroke-width:0.5;" width="63.4248" x="611.81" y="162"/><ellipse cx="626.81" cy="178" fill="#ADD1B2" rx="11" ry="11" style="stroke:#181818;stroke-width:1;"/><path d="M629.7788,183.6406 Q629.2006,183.9375 628.56,184.0781 Q627.9194,184.2344 627.2163,184.2344 Q624.7163,184.2344 623.3881,182.5938 Q622.0756,180.9375 622.0756,177.8125 Q622.0756,174.6875 623.3881,173.0313 Q624.7163,171.375 627.2163,171.375 Q627.9194,171.375 628.56,171.5313 Q629.2163,171.6875 629.7788,171.9844 L629.7788,174.7031 Q629.1538,174.125 628.56,173.8594 Q627.9663,173.5781 627.3413,173.5781 Q625.9975,173.5781 625.31,174.6563 Q624.6225,175.7188 624.6225,177.8125 Q624.6225,179.9063 625.31,180.9844 Q625.9975,182.0469 627.3413,182.0469 Q627.9663,182.0469 628.56,181.7813 Q629.1538,181.5 629.7788,180.9219 L629.7788,183.6406 Z " fill="#000000"/><text fill="#000000" font-family="sans-serif" font-size="14" lengthAdjust="spacing" textLength="31.4248" x="640.81" y="182.8467">Club</text></g><!--class Deporte--><g id="elem_Deporte"><rect codeLine="13" fill="#F1F1F1" height="32" id="Deporte" rx="2.5" ry="2.5" style="stroke:#181818;stroke-width:0.5;" width="88.7041" x="301.38" y="141"/><ellipse cx="316.38" cy="157" fill="#ADD1B2" rx="11" ry="11" style="stroke:#181818;stroke-width:1;"/><path d="M319.3488,162.6406 Q318.7706,162.9375 318.13,163.0781 Q317.4894,163.2344 316.7863,163.2344 Q314.2863,163.2344 312.9581,161.5938 Q311.6456,159.9375 311.6456,156.8125 Q311.6456,153.6875 312.9581,152.0313 Q314.2863,150.375 316.7863,150.375 Q317.4894,150.375 318.13,150.5313 Q318.7863,150.6875 319.3488,150.9844 L319.3488,153.7031 Q318.7238,153.125 318.13,152.8594 Q317.5363,152.5781 316.9113,152.5781 Q315.5675,152.5781 314.88,153.6563 Q314.1925,154.7188 314.1925,156.8125 Q314.1925,158.9063 314.88,159.9844 Q315.5675,161.0469 316.9113,161.0469 Q317.5363,161.0469 318.13,160.7813 Q318.7238,160.5 319.3488,159.9219 L319.3488,162.6406 Z " fill="#000000"/><text fill="#000000" font-family="sans-serif" font-size="14" lengthAdjust="spacing" textLength="56.7041" x="330.38" y="161.8467">Deporte</text></g><!--class Cultura--><g id="elem_Cultura"><rect codeLine="14" fill="#F1F1F1" height="32" id="Cultura" rx="2.5" ry="2.5" style="stroke:#181818;stroke-width:0.5;" width="83.2354" x="304.11" y="208"/><ellipse cx="319.11" cy="224" fill="#ADD1B2" rx="11" ry="11" style="stroke:#181818;stroke-width:1;"/><path d="M322.0788,229.6406 Q321.5006,229.9375 320.86,230.0781 Q320.2194,230.2344 319.5163,230.2344 Q317.0163,230.2344 315.6881,228.5938 Q314.3756,226.9375 314.3756,223.8125 Q314.3756,220.6875 315.6881,219.0313 Q317.0163,217.375 319.5163,217.375 Q320.2194,217.375 320.86,217.5313 Q321.5163,217.6875 322.0788,217.9844 L322.0788,220.7031 Q321.4538,220.125 320.86,219.8594 Q320.2663,219.5781 319.6413,219.5781 Q318.2975,219.5781 317.61,220.6563 Q316.9225,221.7188 316.9225,223.8125 Q316.9225,225.9063 317.61,226.9844 Q318.2975,228.0469 319.6413,228.0469 Q320.2663,228.0469 320.86,227.7813 Q321.4538,227.5 322.0788,226.9219 L322.0788,229.6406 Z " fill="#000000"/><text fill="#000000" font-family="sans-serif" font-size="14" lengthAdjust="spacing" textLength="51.2354" x="333.11" y="228.8467">Cultura</text></g><!--class Esparcimiento--><g id="elem_Esparcimiento"><rect codeLine="15" fill="#F1F1F1" height="32" id="Esparcimiento" rx="2.5" ry="2.5" style="stroke:#181818;stroke-width:0.5;" width="132.0166" x="279.72" y="7"/><ellipse cx="294.72" cy="23" fill="#ADD1B2" rx="11" ry="11" style="stroke:#181818;stroke-width:1;"/><path d="M297.6888,28.6406 Q297.1106,28.9375 296.47,29.0781 Q295.8294,29.2344 295.1263,29.2344 Q292.6263,29.2344 291.2981,27.5938 Q289.9856,25.9375 289.9856,22.8125 Q289.9856,19.6875 291.2981,18.0313 Q292.6263,16.375 295.1263,16.375 Q295.8294,16.375 296.47,16.5313 Q297.1263,16.6875 297.6888,16.9844 L297.6888,19.7031 Q297.0638,19.125 296.47,18.8594 Q295.8763,18.5781 295.2513,18.5781 Q293.9075,18.5781 293.22,19.6563 Q292.5325,20.7188 292.5325,22.8125 Q292.5325,24.9063 293.22,25.9844 Q293.9075,27.0469 295.2513,27.0469 Q295.8763,27.0469 296.47,26.7813 Q297.0638,26.5 297.6888,25.9219 L297.6888,28.6406 Z " fill="#000000"/><text fill="#000000" font-family="sans-serif" font-size="14" lengthAdjust="spacing" textLength="100.0166" x="308.72" y="27.8467">Esparcimiento</text></g><!--class class3--><g id="elem_class3"><rect codeLine="16" fill="#F1F1F1" height="32" id="class3" rx="2.5" ry="2.5" style="stroke:#181818;stroke-width:0.5;" width="153.6045" x="268.93" y="74"/><ellipse cx="283.93" cy="90" fill="#ADD1B2" rx="11" ry="11" style="stroke:#181818;stroke-width:1;"/><path d="M286.8988,95.6406 Q286.3206,95.9375 285.68,96.0781 Q285.0394,96.2344 284.3363,96.2344 Q281.8363,96.2344 280.5081,94.5938 Q279.1956,92.9375 279.1956,89.8125 Q279.1956,86.6875 280.5081,85.0313 Q281.8363,83.375 284.3363,83.375 Q285.0394,83.375 285.68,83.5313 Q286.3363,83.6875 286.8988,83.9844 L286.8988,86.7031 Q286.2738,86.125 285.68,85.8594 Q285.0863,85.5781 284.4613,85.5781 Q283.1175,85.5781 282.43,86.6563 Q281.7425,87.7188 281.7425,89.8125 Q281.7425,91.9063 282.43,92.9844 Q283.1175,94.0469 284.4613,94.0469 Q285.0863,94.0469 285.68,93.7813 Q286.2738,93.5 286.8988,92.9219 L286.8988,95.6406 Z " fill="#000000"/><text fill="#000000" font-family="sans-serif" font-size="14" lengthAdjust="spacing" textLength="121.6045" x="297.93" y="94.8467">Temas de interes</text></g><!--class Administrador--><g id="elem_Administrador"><rect codeLine="17" fill="#F1F1F1" height="32" id="Administrador" rx="2.5" ry="2.5" style="stroke:#181818;stroke-width:0.5;" width="131.0801" x="7" y="628"/><ellipse cx="22" cy="644" fill="#ADD1B2" rx="11" ry="11" style="stroke:#181818;stroke-width:1;"/><path d="M24.9688,649.6406 Q24.3906,649.9375 23.75,650.0781 Q23.1094,650.2344 22.4063,650.2344 Q19.9063,650.2344 18.5781,648.5938 Q17.2656,646.9375 17.2656,643.8125 Q17.2656,640.6875 18.5781,639.0313 Q19.9063,637.375 22.4063,637.375 Q23.1094,637.375 23.75,637.5313 Q24.4063,637.6875 24.9688,637.9844 L24.9688,640.7031 Q24.3438,640.125 23.75,639.8594 Q23.1563,639.5781 22.5313,639.5781 Q21.1875,639.5781 20.5,640.6563 Q19.8125,641.7188 19.8125,643.8125 Q19.8125,645.9063 20.5,646.9844 Q21.1875,648.0469 22.5313,648.0469 Q23.1563,648.0469 23.75,647.7813 Q24.3438,647.5 24.9688,646.9219 L24.9688,649.6406 Z " fill="#000000"/><text fill="#000000" font-family="sans-serif" font-size="14" lengthAdjust="spacing" textLength="99.0801" x="36" y="648.8467">Administrador</text></g><!--class T?cnico--><g id="elem_T&#233;cnico"><rect codeLine="18" fill="#F1F1F1" height="32" id="T&#233;cnico" rx="2.5" ry="2.5" style="stroke:#181818;stroke-width:0.5;" width="85.8877" x="29.6" y="778"/><ellipse cx="44.6" cy="794" fill="#ADD1B2" rx="11" ry="11" style="stroke:#181818;stroke-width:1;"/><path d="M47.5688,799.6406 Q46.9906,799.9375 46.35,800.0781 Q45.7094,800.2344 45.0063,800.2344 Q42.5063,800.2344 41.1781,798.5938 Q39.8656,796.9375 39.8656,793.8125 Q39.8656,790.6875 41.1781,789.0313 Q42.5063,787.375 45.0063,787.375 Q45.7094,787.375 46.35,787.5313 Q47.0063,787.6875 47.5688,787.9844 L47.5688,790.7031 Q46.9438,790.125 46.35,789.8594 Q45.7563,789.5781 45.1313,789.5781 Q43.7875,789.5781 43.1,790.6563 Q42.4125,791.7188 42.4125,793.8125 Q42.4125,795.9063 43.1,796.9844 Q43.7875,798.0469 45.1313,798.0469 Q45.7563,798.0469 46.35,797.7813 Q46.9438,797.5 47.5688,796.9219 L47.5688,799.6406 Z " fill="#000000"/><text fill="#000000" font-family="sans-serif" font-size="14" lengthAdjust="spacing" textLength="53.8877" x="58.6" y="798.8467">T&#233;cnico</text></g><!--class Obrero--><g id="elem_Obrero"><rect codeLine="19" fill="#F1F1F1" height="32" id="Obrero" rx="2.5" ry="2.5" style="stroke:#181818;stroke-width:0.5;" width="80.5967" x="32.24" y="711"/><ellipse cx="47.24" cy="727" fill="#ADD1B2" rx="11" ry="11" style="stroke:#181818;stroke-width:1;"/><path d="M50.2087,732.6406 Q49.6306,732.9375 48.99,733.0781 Q48.3494,733.2344 47.6462,733.2344 Q45.1462,733.2344 43.8181,731.5938 Q42.5056,729.9375 42.5056,726.8125 Q42.5056,723.6875 43.8181,722.0313 Q45.1462,720.375 47.6462,720.375 Q48.3494,720.375 48.99,720.5313 Q49.6462,720.6875 50.2087,720.9844 L50.2087,723.7031 Q49.5837,723.125 48.99,722.8594 Q48.3962,722.5781 47.7712,722.5781 Q46.4275,722.5781 45.74,723.6563 Q45.0525,724.7188 45.0525,726.8125 Q45.0525,728.9063 45.74,729.9844 Q46.4275,731.0469 47.7712,731.0469 Q48.3962,731.0469 48.99,730.7813 Q49.5837,730.5 50.2087,729.9219 L50.2087,732.6406 Z " fill="#000000"/><text fill="#000000" font-family="sans-serif" font-size="14" lengthAdjust="spacing" textLength="48.5967" x="61.24" y="731.8467">Obrero</text></g><!--class Evento--><g id="elem_Evento"><rect codeLine="20" fill="#F1F1F1" height="32" id="Evento" rx="2.5" ry="2.5" style="stroke:#181818;stroke-width:0.5;" width="80.6719" x="456.38" y="605"/><ellipse cx="471.38" cy="621" fill="#ADD1B2" rx="11" ry="11" style="stroke:#181818;stroke-width:1;"/><path d="M474.3488,626.6406 Q473.7706,626.9375 473.13,627.0781 Q472.4894,627.2344 471.7863,627.2344 Q469.2863,627.2344 467.9581,625.5938 Q466.6456,623.9375 466.6456,620.8125 Q466.6456,617.6875 467.9581,616.0313 Q469.2863,614.375 471.7863,614.375 Q472.4894,614.375 473.13,614.5313 Q473.7863,614.6875 474.3488,614.9844 L474.3488,617.7031 Q473.7238,617.125 473.13,616.8594 Q472.5363,616.5781 471.9113,616.5781 Q470.5675,616.5781 469.88,617.6563 Q469.1925,618.7188 469.1925,620.8125 Q469.1925,622.9063 469.88,623.9844 Q470.5675,625.0469 471.9113,625.0469 Q472.5363,625.0469 473.13,624.7813 Q473.7238,624.5 474.3488,623.9219 L474.3488,626.6406 Z " fill="#000000"/><text fill="#000000" font-family="sans-serif" font-size="14" lengthAdjust="spacing" textLength="48.6719" x="485.38" y="625.8467">Evento</text></g><!--class Informaci?n--><g id="elem_Informaci&#243;n"><rect codeLine="21" fill="#F1F1F1" height="32" id="Informaci&#243;n" rx="2.5" ry="2.5" style="stroke:#181818;stroke-width:0.5;" width="115.4941" x="585.77" y="815"/><ellipse cx="600.77" cy="831" fill="#ADD1B2" rx="11" ry="11" style="stroke:#181818;stroke-width:1;"/><path d="M603.7388,836.6406 Q603.1606,836.9375 602.52,837.0781 Q601.8794,837.2344 601.1763,837.2344 Q598.6763,837.2344 597.3481,835.5938 Q596.0356,833.9375 596.0356,830.8125 Q596.0356,827.6875 597.3481,826.0313 Q598.6763,824.375 601.1763,824.375 Q601.8794,824.375 602.52,824.5313 Q603.1763,824.6875 603.7388,824.9844 L603.7388,827.7031 Q603.1138,827.125 602.52,826.8594 Q601.9263,826.5781 601.3013,826.5781 Q599.9575,826.5781 599.27,827.6563 Q598.5825,828.7188 598.5825,830.8125 Q598.5825,832.9063 599.27,833.9844 Q599.9575,835.0469 601.3013,835.0469 Q601.9263,835.0469 602.52,834.7813 Q603.1138,834.5 603.7388,833.9219 L603.7388,836.6406 Z " fill="#000000"/><text fill="#000000" font-family="sans-serif" font-size="14" lengthAdjust="spacing" textLength="83.4941" x="614.77" y="835.8467">Informaci&#243;n</text></g><!--class Proyecto--><g id="elem_Proyecto"><rect codeLine="22" fill="#F1F1F1" height="32" id="Proyecto" rx="2.5" ry="2.5" style="stroke:#181818;stroke-width:0.5;" width="93.4141" x="299.02" y="882"/><ellipse cx="314.02" cy="898" fill="#ADD1B2" rx="11" ry="11" style="stroke:#181818;stroke-width:1;"/><path d="M316.9888,903.6406 Q316.4106,903.9375 315.77,904.0781 Q315.1294,904.2344 314.4263,904.2344 Q311.9263,904.2344 310.5981,902.5938 Q309.2856,900.9375 309.2856,897.8125 Q309.2856,894.6875 310.5981,893.0313 Q311.9263,891.375 314.4263,891.375 Q315.1294,891.375 315.77,891.5313 Q316.4263,891.6875 316.9888,891.9844 L316.9888,894.7031 Q316.3638,894.125 315.77,893.8594 Q315.1763,893.5781 314.5513,893.5781 Q313.2075,893.5781 312.52,894.6563 Q311.8325,895.7188 311.8325,897.8125 Q311.8325,899.9063 312.52,900.9844 Q313.2075,902.0469 314.5513,902.0469 Q315.1763,902.0469 315.77,901.7813 Q316.3638,901.5 316.9888,900.9219 L316.9888,903.6406 Z " fill="#000000"/><text fill="#000000" font-family="sans-serif" font-size="14" lengthAdjust="spacing" textLength="61.4141" x="328.02" y="902.8467">Proyecto</text></g><!--class Experiencia--><g id="elem_Experiencia"><rect codeLine="23" fill="#F1F1F1" height="32" id="Experiencia" rx="2.5" ry="2.5" style="stroke:#181818;stroke-width:0.5;" width="113.9287" x="288.76" y="949"/><ellipse cx="303.76" cy="965" fill="#ADD1B2" rx="11" ry="11" style="stroke:#181818;stroke-width:1;"/><path d="M306.7288,970.6406 Q306.1506,970.9375 305.51,971.0781 Q304.8694,971.2344 304.1663,971.2344 Q301.6663,971.2344 300.3381,969.5938 Q299.0256,967.9375 299.0256,964.8125 Q299.0256,961.6875 300.3381,960.0313 Q301.6663,958.375 304.1663,958.375 Q304.8694,958.375 305.51,958.5313 Q306.1663,958.6875 306.7288,958.9844 L306.7288,961.7031 Q306.1038,961.125 305.51,960.8594 Q304.9163,960.5781 304.2913,960.5781 Q302.9475,960.5781 302.26,961.6563 Q301.5725,962.7188 301.5725,964.8125 Q301.5725,966.9063 302.26,967.9844 Q302.9475,969.0469 304.2913,969.0469 Q304.9163,969.0469 305.51,968.7813 Q306.1038,968.5 306.7288,967.9219 L306.7288,970.6406 Z " fill="#000000"/><text fill="#000000" font-family="sans-serif" font-size="14" lengthAdjust="spacing" textLength="81.9287" x="317.76" y="969.8467">Experiencia</text></g><!--class Investigaci?n--><g id="elem_Investigaci&#243;n"><rect codeLine="24" fill="#F1F1F1" height="32" id="Investigaci&#243;n" rx="2.5" ry="2.5" style="stroke:#181818;stroke-width:0.5;" width="125.0645" x="283.2" y="815"/><ellipse cx="298.2" cy="831" fill="#ADD1B2" rx="11" ry="11" style="stroke:#181818;stroke-width:1;"/><path d="M301.1688,836.6406 Q300.5906,836.9375 299.95,837.0781 Q299.3094,837.2344 298.6063,837.2344 Q296.1063,837.2344 294.7781,835.5938 Q293.4656,833.9375 293.4656,830.8125 Q293.4656,827.6875 294.7781,826.0313 Q296.1063,824.375 298.6063,824.375 Q299.3094,824.375 299.95,824.5313 Q300.6063,824.6875 301.1688,824.9844 L301.1688,827.7031 Q300.5438,827.125 299.95,826.8594 Q299.3563,826.5781 298.7313,826.5781 Q297.3875,826.5781 296.7,827.6563 Q296.0125,828.7188 296.0125,830.8125 Q296.0125,832.9063 296.7,833.9844 Q297.3875,835.0469 298.7313,835.0469 Q299.3563,835.0469 299.95,834.7813 Q300.5438,834.5 301.1688,833.9219 L301.1688,836.6406 Z " fill="#000000"/><text fill="#000000" font-family="sans-serif" font-size="14" lengthAdjust="spacing" textLength="93.0645" x="312.2" y="835.8467">Investigaci&#243;n</text></g><!--class class4--><g id="elem_class4"><rect codeLine="25" fill="#F1F1F1" height="32" id="class4" rx="2.5" ry="2.5" style="stroke:#181818;stroke-width:0.5;" width="162.9287" x="780.99" y="465"/><ellipse cx="795.99" cy="481" fill="#ADD1B2" rx="11" ry="11" style="stroke:#181818;stroke-width:1;"/><path d="M798.9588,486.6406 Q798.3806,486.9375 797.74,487.0781 Q797.0994,487.2344 796.3963,487.2344 Q793.8963,487.2344 792.5681,485.5938 Q791.2556,483.9375 791.2556,480.8125 Q791.2556,477.6875 792.5681,476.0313 Q793.8963,474.375 796.3963,474.375 Q797.0994,474.375 797.74,474.5313 Q798.3963,474.6875 798.9588,474.9844 L798.9588,477.7031 Q798.3338,477.125 797.74,476.8594 Q797.1463,476.5781 796.5213,476.5781 Q795.1775,476.5781 794.49,477.6563 Q793.8025,478.7188 793.8025,480.8125 Q793.8025,482.9063 794.49,483.9844 Q795.1775,485.0469 796.5213,485.0469 Q797.1463,485.0469 797.74,484.7813 Q798.3338,484.5 798.9588,483.9219 L798.9588,486.6406 Z " fill="#000000"/><text fill="#000000" font-family="sans-serif" font-size="14" lengthAdjust="spacing" textLength="130.9287" x="809.99" y="485.8467">Medios de difusi&#243;n</text></g><!--link Estudiante to Campus--><g id="link_Estudiante_Campus"><path codeLine="27" d="M361.4,380.27 C411.75,436.11 569.2345,610.7276 619.7245,666.7276 " fill="none" id="Estudiante-to-Campus" style="stroke:#181818;stroke-width:1;"/><polygon fill="none" points="627.76,675.64,626.7131,668.5053,619.7245,666.7276,620.7715,673.8623,627.76,675.64" style="stroke:#181818;stroke-width:1;"/></g><!--link Profesor to Campus--><g id="link_Profesor_Campus"><path codeLine="28" d="M391.01,753.22 C447.1,739.57 531.4702,719.0271 587.2402,705.4571 " fill="none" id="Profesor-to-Campus" style="stroke:#181818;stroke-width:1;"/><polygon fill="none" points="598.9,702.62,592.1244,700.1519,587.2402,705.4571,594.0158,707.9251,598.9,702.62" style="stroke:#181818;stroke-width:1;"/></g><!--link class1 to Campus--><g id="link_class1_Campus"><path codeLine="29" d="M426.77,695.65 C482.04,694.71 541.4417,693.7145 586.6217,692.9445 " fill="none" id="class1-to-Campus" style="stroke:#181818;stroke-width:1;"/><polygon fill="none" points="598.62,692.74,592.5527,688.8428,586.6217,692.9445,592.689,696.8417,598.62,692.74" style="stroke:#181818;stroke-width:1;"/></g><!--link Administrador to class1--><g id="link_Administrador_class1"><path codeLine="30" d="M138.34,657.92 C148.29,660 158.45,662.08 168.08,664 C199.6,670.28 216.6512,673.5609 246.9312,679.1709 " fill="none" id="Administrador-to-class1" style="stroke:#181818;stroke-width:1;"/><polygon fill="none" points="264.63,682.45,248.0242,673.2713,245.8382,685.0705,264.63,682.45" style="stroke:#181818;stroke-width:1;"/></g><!--link Obrero to class1--><g id="link_Obrero_class1"><path codeLine="31" d="M113.26,722.61 C152.91,718.22 197.0593,713.3403 246.9293,707.8203 " fill="none" id="Obrero-to-class1" style="stroke:#181818;stroke-width:1;"/><polygon fill="none" points="264.82,705.84,246.2692,701.8567,247.5894,713.7839,264.82,705.84" style="stroke:#181818;stroke-width:1;"/></g><!--link T?cnico to class1--><g id="link_T&#233;cnico_class1"><path codeLine="32" d="M115.91,778.84 C165.67,761.05 230.931,737.7006 282.081,719.4106 " fill="none" id="T&#233;cnico-to-class1" style="stroke:#181818;stroke-width:1;"/><polygon fill="none" points="299.03,713.35,280.0608,713.7609,284.1012,725.0602,299.03,713.35" style="stroke:#181818;stroke-width:1;"/></g><!--link Estudiante to Carrera--><g id="link_Estudiante_Carrera"><path codeLine="33" d="M399.61,351.84 C457.27,338.59 536.6552,320.3391 589.3652,308.2191 " fill="none" id="Estudiante-to-Carrera" style="stroke:#181818;stroke-width:1;"/><polygon fill="none" points="601.06,305.53,594.3162,302.9763,589.3652,308.2191,596.1089,310.7728,601.06,305.53" style="stroke:#181818;stroke-width:1;"/></g><!--link Seminario to Actividad--><g id="link_Seminario_Actividad"><path codeLine="35" d="M397.24,490.12 C452.52,488.07 522.4725,485.4704 576.6725,483.4504 " fill="none" id="Seminario-to-Actividad" style="stroke:#181818;stroke-width:1;"/><polygon fill="none" points="594.66,482.78,576.449,477.4545,576.8959,489.4462,594.66,482.78" style="stroke:#181818;stroke-width:1;"/></g><!--link Taller to Actividad--><g id="link_Taller_Actividad"><path codeLine="36" d="M381.82,549.75 C434.69,535.8 517.5147,513.9586 577.1047,498.2486 " fill="none" id="Taller-to-Actividad" style="stroke:#181818;stroke-width:1;"/><polygon fill="none" points="594.51,493.66,575.5752,492.4469,578.6343,504.0504,594.51,493.66" style="stroke:#181818;stroke-width:1;"/></g><!--link Estudiante to Actividad--><!--link Estudiante to Actividad--><g id="link_Estudiante_Actividad"><path codeLine="38" d="M396.49,380.38 C435.17,393.45 489.97,412.7 537.05,432 C561.52,442.03 583.1541,452.0269 603.7341,461.9369 " fill="none" id="Estudiante-to-Actividad-1" style="stroke:#181818;stroke-width:1;"/><polygon fill="#181818" points="609.14,464.54,602.7666,457.0314,604.6351,462.3707,599.2957,464.2392,609.14,464.54" style="stroke:#181818;stroke-width:1;"/><text fill="#000000" font-family="sans-serif" font-size="13" lengthAdjust="spacing" textLength="58.4365" x="467.71" y="398.0669">Organiza</text><text fill="#000000" font-family="sans-serif" font-size="13" lengthAdjust="spacing" textLength="23.0356" x="571.5213" y="453.9908">1..*</text></g><!--link Estudiante to class2--><g id="link_Estudiante_class2"><path codeLine="39" d="M399.27,366.52 C437.51,368.47 490.52,371.45 537.05,375 C546.68,375.73 550.8136,376.0581 560.8136,376.9481 " fill="none" id="Estudiante-to-class2" style="stroke:#181818;stroke-width:1;"/><polygon fill="#181818" points="566.79,377.48,558.18,372.6979,561.8097,377.0368,557.4708,380.6664,566.79,377.48" style="stroke:#181818;stroke-width:1;"/><text fill="#000000" font-family="sans-serif" font-size="13" lengthAdjust="spacing" textLength="30.3862" x="481.71" y="365.0669">Crea</text><text fill="#000000" font-family="sans-serif" font-size="13" lengthAdjust="spacing" textLength="23.0356" x="535.9335" y="389.551">1..*</text></g><!--link Estudiante to Club--><g id="link_Estudiante_Club"><path codeLine="40" d="M372.72,347.66 C428.83,312.38 555.6508,232.624 611.6108,197.434 " fill="none" id="Estudiante-to-Club" style="stroke:#181818;stroke-width:1;"/><polygon fill="#181818" points="616.69,194.24,606.9419,195.6449,612.4573,196.9017,611.2005,202.4172,616.69,194.24" style="stroke:#181818;stroke-width:1;"/><text fill="#000000" font-family="sans-serif" font-size="13" lengthAdjust="spacing" textLength="41.4058" x="476.21" y="245.0669">Forma</text><text fill="#000000" font-family="sans-serif" font-size="13" lengthAdjust="spacing" textLength="23.0356" x="580.9983" y="214.1928">1..*</text></g><!--link Deporte to Club--><g id="link_Deporte_Club"><path codeLine="41" d="M390.37,160.1 C450.8,164.39 540.5052,170.7545 593.4352,174.5145 " fill="none" id="Deporte-to-Club" style="stroke:#181818;stroke-width:1;"/><polygon fill="none" points="611.39,175.79,593.8604,168.5296,593.0101,180.4995,611.39,175.79" style="stroke:#181818;stroke-width:1;"/></g><!--link Cultura to Club--><g id="link_Cultura_Club"><path codeLine="42" d="M387.55,217.65 C447.45,208.34 540.0937,193.9256 593.7937,185.5756 " fill="none" id="Cultura-to-Club" style="stroke:#181818;stroke-width:1;"/><polygon fill="none" points="611.58,182.81,592.8719,179.6469,594.7156,191.5044,611.58,182.81" style="stroke:#181818;stroke-width:1;"/></g><!--link Esparcimiento to Club--><g id="link_Esparcimiento_Club"><path codeLine="43" d="M385.23,39.38 C398.3,44.96 412.98,51.24 426.38,57 C475.62,78.19 490.19,78.95 537.05,105 C567.8,122.09 586.4242,135.0282 607.1542,150.7382 " fill="none" id="Esparcimiento-to-Club" style="stroke:#181818;stroke-width:1;"/><polygon fill="none" points="621.5,161.61,610.7781,145.9562,603.5302,155.5201,621.5,161.61" style="stroke:#181818;stroke-width:1;"/></g><!--link class3 to Club--><g id="link_class3_Club"><path codeLine="44" d="M410.89,106.47 C447.93,116.24 495.3,129.18 537.05,142 C562.39,149.78 579.4951,155.5433 600.4451,162.9433 " fill="none" id="class3-to-Club" style="stroke:#181818;stroke-width:1;"/><polygon fill="none" points="611.76,166.94,607.4348,161.17,600.4451,162.9433,604.7703,168.7133,611.76,166.94" style="stroke:#181818;stroke-width:1;"/></g><!--link Administrador to Evento--><g id="link_Administrador_Evento"><path codeLine="45" d="M138.58,640.46 C227.16,635.63 377.0689,627.467 449.9989,623.487 " fill="none" id="Administrador-to-Evento" style="stroke:#181818;stroke-width:1;"/><polygon fill="#181818" points="455.99,623.16,446.7854,619.6564,450.9974,623.4325,447.2213,627.6445,455.99,623.16" style="stroke:#181818;stroke-width:1;"/><text fill="#000000" font-family="sans-serif" font-size="13" lengthAdjust="spacing" textLength="65.73" x="169.08" y="631.0669">Promueve</text><text fill="#000000" font-family="sans-serif" font-size="13" lengthAdjust="spacing" textLength="23.0356" x="425.3219" y="636.6555">1..*</text></g><!--link Profesor to Informaci?n--><g id="link_Profesor_Informaci&#243;n"><path codeLine="47" d="M391.01,774.03 C442.82,785.77 522.8881,803.905 579.6381,816.755 " fill="none" id="Profesor-to-Informaci&#243;n" style="stroke:#181818;stroke-width:1;"/><polygon fill="#181818" points="585.49,818.08,577.5956,812.1912,580.6135,816.9758,575.8288,819.9937,585.49,818.08" style="stroke:#181818;stroke-width:1;"/><text fill="#000000" font-family="sans-serif" font-size="13" lengthAdjust="spacing" textLength="46.668" x="473.71" y="785.0669">Publica</text></g><!--link Proyecto to Informaci?n--><g id="link_Proyecto_Informaci&#243;n"><path codeLine="48" d="M392.62,887.6 C444.55,875.84 511.6245,860.6455 567.7945,847.9255 " fill="none" id="Proyecto-to-Informaci&#243;n" style="stroke:#181818;stroke-width:1;"/><polygon fill="none" points="585.35,843.95,566.4693,842.0737,569.1197,853.7774,585.35,843.95" style="stroke:#181818;stroke-width:1;"/></g><!--link Experiencia to Informaci?n--><g id="link_Experiencia_Informaci&#243;n"><path codeLine="49" d="M385.71,948.62 C398.68,943.1 413.18,936.85 426.38,931 C490.81,902.41 549.0132,875.2253 591.5832,855.1253 " fill="none" id="Experiencia-to-Informaci&#243;n" style="stroke:#181818;stroke-width:1;"/><polygon fill="none" points="607.86,847.44,589.0214,849.6997,594.1449,860.5509,607.86,847.44" style="stroke:#181818;stroke-width:1;"/></g><!--link Investigaci?n to Informaci?n--><g id="link_Investigaci&#243;n_Informaci&#243;n"><path codeLine="50" d="M408.73,831 C460.91,831 516.91,831 567.6,831 " fill="none" id="Investigaci&#243;n-to-Informaci&#243;n" style="stroke:#181818;stroke-width:1;"/><polygon fill="none" points="585.6,831,567.6,825,567.6,837,585.6,831" style="stroke:#181818;stroke-width:1;"/></g><!--link Informaci?n to class4--><g id="link_Informaci&#243;n_class4"><path codeLine="52" d="M656.77,814.8 C672.12,794.29 698.95,757.67 719.99,725 C773.8,641.43 828.3641,542.2467 849.8341,502.5767 " fill="none" id="Informaci&#243;n-to-class4" style="stroke:#181818;stroke-width:1;"/><polygon fill="#181818" points="852.69,497.3,844.8884,503.3112,850.3101,501.6973,851.924,507.119,852.69,497.3" style="stroke:#181818;stroke-width:1;"/></g><!--link Evento to class4--><g id="link_Evento_class4"><path codeLine="53" d="M537.33,605.75 C606.29,579.21 742.1803,526.9049 813.2003,499.5749 " fill="none" id="Evento-to-class4" style="stroke:#181818;stroke-width:1;"/><polygon fill="#181818" points="818.8,497.42,808.9639,496.9192,814.1336,499.2157,811.8371,504.3854,818.8,497.42" style="stroke:#181818;stroke-width:1;"/></g><!--link Actividad to class4--><g id="link_Actividad_class4"><path codeLine="54" d="M692.39,481 C718.35,481 745.11,481 774.88,481 " fill="none" id="Actividad-to-class4" style="stroke:#181818;stroke-width:1;"/><polygon fill="#181818" points="780.88,481,771.88,477,775.88,481,771.88,485,780.88,481" style="stroke:#181818;stroke-width:1;"/></g><!--link class2 to class4--><g id="link_class2_class4"><path codeLine="55" d="M681.32,401.29 C721.21,418.94 779.0236,444.5212 818.9836,462.2112 " fill="none" id="class2-to-class4" style="stroke:#181818;stroke-width:1;"/><polygon fill="#181818" points="824.47,464.64,817.8596,457.3392,819.898,462.616,814.6212,464.6544,824.47,464.64" style="stroke:#181818;stroke-width:1;"/></g><!--link Club to class4--><g id="link_Club_class4"><path codeLine="56" d="M660.33,194.3 C676.16,210.96 700.86,237.88 719.99,263 C774.66,334.79 827.2213,422.2805 848.9213,459.3905 " fill="none" id="Club-to-class4" style="stroke:#181818;stroke-width:1;"/><polygon fill="#181818" points="851.95,464.57,850.86,454.7817,849.4261,460.2538,843.954,458.8199,851.95,464.57" style="stroke:#181818;stroke-width:1;"/></g><!--SRC=[TLHDRzim3BthLmW-5aY1hZlvK638ic67eG6Msx03Op4f0LioA3bRz_63TjvFw1-RR3aIdRP7FbBa8z-3MZm47PncEZu4ROYn2UIiKaqBtkirTFtWV_sPmuqFWo6m0JEqPNT0xpW3rHRPEmkjDgYXTu-kqk3rbBp9LU_Yc1CPC1dvWXrPO78PsK7ROccy1cPaA8C-yj2xSGfEjCISD-LHE-npy1vxnuBxUcZ383fkV0_SK4TeGw5HxR2BZUCSYeip-ZBdjknZ8dloWS68M-oU_ZQMcjBhVXzNAE7cj9ZqoHuSTz3Gqpyh3_mOHH6FVlJ8aM9385wUuX7eUF6s-epnBXDtGuV1Zyd2_csiKqLIlLgvMN1rLbLYIK69B9QEYTztiymgxRc0phTOWC-cJn8hbSsGghDRLFB49IhRV7qWOz1-MxrMODnt6vFLpVNrLLLgQdtFHx3q4vQiScLoLgtNZA-LZ6whzOTHH3MRBL4T4sgscq0MXYjmybQwo1XVtZdFI_wfHuzq0vvGIU7k5dwgjyE-fGRKsK-9XYnHmbalP9SUUw50oMWYa6oc4as9vAjBC1rO8kFsCbPHMzGTTllun_m7]--></g></svg>