<svg xmlns="http://www.w3.org/2000/svg" xmlns:xlink="http://www.w3.org/1999/xlink" contentStyleType="text/css" data-diagram-type="CLASS" height="771px" preserveAspectRatio="none" style="width:961px;height:771px;background:#FFFFFF;" version="1.1" viewBox="0 0 961 771" width="961px" zoomAndPan="magnify"><defs/><g><!--class User--><g class="entity" data-entity="User" data-source-line="1" data-uid="ent0002" id="entity_User"><rect fill="#F1F1F1" height="113.1875" rx="2.5" ry="2.5" style="stroke:#181818;stroke-width:0.5;" width="150.5029" x="367.99" y="7"/><ellipse cx="423.0364" cy="23" fill="#ADD1B2" rx="11" ry="11" style="stroke:#181818;stroke-width:1;"/><path d="M426.0051,28.6406 Q425.427,28.9375 424.7864,29.0781 Q424.1458,29.2344 423.4426,29.2344 Q420.9426,29.2344 419.6145,27.5938 Q418.302,25.9375 418.302,22.8125 Q418.302,19.6875 419.6145,18.0313 Q420.9426,16.375 423.4426,16.375 Q424.1458,16.375 424.7864,16.5313 Q425.4426,16.6875 426.0051,16.9844 L426.0051,19.7031 Q425.3801,19.125 424.7864,18.8594 Q424.1926,18.5781 423.5676,18.5781 Q422.2239,18.5781 421.5364,19.6563 Q420.8489,20.7188 420.8489,22.8125 Q420.8489,24.9063 421.5364,25.9844 Q422.2239,27.0469 423.5676,27.0469 Q424.1926,27.0469 424.7864,26.7813 Q425.3801,26.5 426.0051,25.9219 L426.0051,28.6406 Z " fill="#000000"/><text fill="#000000" font-family="sans-serif" font-size="14" lengthAdjust="spacing" textLength="31.9102" x="443.5364" y="27.8467">User</text><line style="stroke:#181818;stroke-width:0.5;" x1="368.99" x2="517.4929" y1="39" y2="39"/><ellipse cx="378.99" cy="52.6484" fill="none" rx="3" ry="3" style="stroke:#038048;stroke-width:1;"/><text fill="#000000" font-family="sans-serif" font-size="14" lengthAdjust="spacing" textLength="90.6514" x="387.99" y="55.9951">name: String</text><ellipse cx="378.99" cy="68.9453" fill="none" rx="3" ry="3" style="stroke:#038048;stroke-width:1;"/><text fill="#000000" font-family="sans-serif" font-size="14" lengthAdjust="spacing" textLength="124.5029" x="387.99" y="72.292">last_Name: String</text><ellipse cx="378.99" cy="85.2422" fill="none" rx="3" ry="3" style="stroke:#038048;stroke-width:1;"/><text fill="#000000" font-family="sans-serif" font-size="14" lengthAdjust="spacing" textLength="82.2227" x="387.99" y="88.5889">type: String</text><ellipse cx="378.99" cy="101.5391" fill="none" rx="3" ry="3" style="stroke:#038048;stroke-width:1;"/><text fill="#000000" font-family="sans-serif" font-size="14" lengthAdjust="spacing" textLength="89.5576" x="387.99" y="104.8857">email: String</text><line style="stroke:#181818;stroke-width:0.5;" x1="368.99" x2="517.4929" y1="112.1875" y2="112.1875"/></g><!--class Post--><g class="entity" data-entity="Post" data-source-line="7" data-uid="ent0003" id="entity_Post"><rect fill="#F1F1F1" height="178.375" rx="2.5" ry="2.5" style="stroke:#181818;stroke-width:0.5;" width="160.0938" x="363.19" y="428.78"/><ellipse cx="424.0914" cy="444.78" fill="#ADD1B2" rx="11" ry="11" style="stroke:#181818;stroke-width:1;"/><path d="M427.0601,450.4206 Q426.482,450.7175 425.8414,450.8581 Q425.2007,451.0144 424.4976,451.0144 Q421.9976,451.0144 420.6695,449.3738 Q419.357,447.7175 419.357,444.5925 Q419.357,441.4675 420.6695,439.8113 Q421.9976,438.155 424.4976,438.155 Q425.2007,438.155 425.8414,438.3113 Q426.4976,438.4675 427.0601,438.7644 L427.0601,441.4831 Q426.4351,440.905 425.8414,440.6394 Q425.2476,440.3581 424.6226,440.3581 Q423.2789,440.3581 422.5914,441.4363 Q421.9039,442.4988 421.9039,444.5925 Q421.9039,446.6863 422.5914,447.7644 Q423.2789,448.8269 424.6226,448.8269 Q425.2476,448.8269 425.8414,448.5613 Q426.4351,448.28 427.0601,447.7019 L427.0601,450.4206 Z " fill="#000000"/><text fill="#000000" font-family="sans-serif" font-size="14" lengthAdjust="spacing" textLength="29.791" x="444.5914" y="449.6267">Post</text><line style="stroke:#181818;stroke-width:0.5;" x1="364.19" x2="522.2838" y1="460.78" y2="460.78"/><ellipse cx="374.19" cy="474.4284" fill="none" rx="3" ry="3" style="stroke:#038048;stroke-width:1;"/><text fill="#000000" font-family="sans-serif" font-size="14" lengthAdjust="spacing" textLength="78.3193" x="383.19" y="477.7751">title: String</text><ellipse cx="374.19" cy="490.7253" fill="none" rx="3" ry="3" style="stroke:#038048;stroke-width:1;"/><text fill="#000000" font-family="sans-serif" font-size="14" lengthAdjust="spacing" textLength="134.0938" x="383.19" y="494.072">image: attachment</text><ellipse cx="374.19" cy="507.0222" fill="none" rx="3" ry="3" style="stroke:#038048;stroke-width:1;"/><text fill="#000000" font-family="sans-serif" font-size="14" lengthAdjust="spacing" textLength="128.7891" x="383.19" y="510.3689">description: String</text><ellipse cx="374.19" cy="523.3191" fill="none" rx="3" ry="3" style="stroke:#038048;stroke-width:1;"/><text fill="#000000" font-family="sans-serif" font-size="14" lengthAdjust="spacing" textLength="97.084" x="383.19" y="526.6657">author: String</text><ellipse cx="374.19" cy="539.6159" fill="none" rx="3" ry="3" style="stroke:#038048;stroke-width:1;"/><text fill="#000000" font-family="sans-serif" font-size="14" lengthAdjust="spacing" textLength="96.6465" x="383.19" y="542.9626">approve: bool</text><line style="stroke:#181818;stroke-width:0.5;" x1="364.19" x2="522.2838" y1="550.2644" y2="550.2644"/><ellipse cx="374.19" cy="563.9128" fill="#84BE84" rx="3" ry="3" style="stroke:#038048;stroke-width:1;"/><text fill="#000000" font-family="sans-serif" font-size="14" lengthAdjust="spacing" textLength="63.7041" x="383.19" y="567.2595">getPost()</text><ellipse cx="374.19" cy="580.2097" fill="#84BE84" rx="3" ry="3" style="stroke:#038048;stroke-width:1;"/><text fill="#000000" font-family="sans-serif" font-size="14" lengthAdjust="spacing" textLength="69.6514" x="383.19" y="583.5564">newPost()</text><ellipse cx="374.19" cy="596.5066" fill="#84BE84" rx="3" ry="3" style="stroke:#038048;stroke-width:1;"/><text fill="#000000" font-family="sans-serif" font-size="14" lengthAdjust="spacing" textLength="90.8906" x="383.19" y="599.8532">setApprove()</text></g><!--class Event--><g class="entity" data-entity="Event" data-source-line="18" data-uid="ent0004" id="entity_Event"><rect fill="#F1F1F1" height="96.8906" rx="2.5" ry="2.5" style="stroke:#181818;stroke-width:0.5;" width="101.4893" x="200.5" y="667.16"/><ellipse cx="228.7223" cy="683.16" fill="#ADD1B2" rx="11" ry="11" style="stroke:#181818;stroke-width:1;"/><path d="M231.691,688.8006 Q231.1129,689.0975 230.4723,689.2381 Q229.8316,689.3944 229.1285,689.3944 Q226.6285,689.3944 225.3004,687.7538 Q223.9879,686.0975 223.9879,682.9725 Q223.9879,679.8475 225.3004,678.1913 Q226.6285,676.535 229.1285,676.535 Q229.8316,676.535 230.4723,676.6913 Q231.1285,676.8475 231.691,677.1444 L231.691,679.8631 Q231.066,679.285 230.4723,679.0194 Q229.8785,678.7381 229.2535,678.7381 Q227.9098,678.7381 227.2223,679.8163 Q226.5348,680.8788 226.5348,682.9725 Q226.5348,685.0663 227.2223,686.1444 Q227.9098,687.2069 229.2535,687.2069 Q229.8785,687.2069 230.4723,686.9413 Q231.066,686.66 231.691,686.0819 L231.691,688.8006 Z " fill="#000000"/><text fill="#000000" font-family="sans-serif" font-size="14" lengthAdjust="spacing" textLength="40.1064" x="245.6605" y="688.0067">Event</text><line style="stroke:#181818;stroke-width:0.5;" x1="201.5" x2="300.9893" y1="699.16" y2="699.16"/><ellipse cx="211.5" cy="712.8084" fill="none" rx="3" ry="3" style="stroke:#038048;stroke-width:1;"/><text fill="#000000" font-family="sans-serif" font-size="14" lengthAdjust="spacing" textLength="74.1973" x="220.5" y="716.1551">date: Date</text><ellipse cx="211.5" cy="729.1053" fill="none" rx="3" ry="3" style="stroke:#038048;stroke-width:1;"/><text fill="#000000" font-family="sans-serif" font-size="14" lengthAdjust="spacing" textLength="75.4893" x="220.5" y="732.452">time: Time</text><line style="stroke:#181818;stroke-width:0.5;" x1="201.5" x2="300.9893" y1="739.7538" y2="739.7538"/><ellipse cx="211.5" cy="753.4022" fill="#84BE84" rx="3" ry="3" style="stroke:#038048;stroke-width:1;"/><text fill="#000000" font-family="sans-serif" font-size="14" lengthAdjust="spacing" textLength="74.0195" x="220.5" y="756.7489">getEvent()</text></g><!--class VerifyPostController--><g class="entity" data-entity="VerifyPostController" data-source-line="24" data-uid="ent0005" id="entity_VerifyPostController"><rect fill="#F1F1F1" height="64.2969" rx="2.5" ry="2.5" style="stroke:#181818;stroke-width:0.5;" width="172.0137" x="782.23" y="304.49"/><ellipse cx="797.23" cy="320.49" fill="#ADD1B2" rx="11" ry="11" style="stroke:#181818;stroke-width:1;"/><path d="M800.1988,326.1306 Q799.6206,326.4275 798.98,326.5681 Q798.3394,326.7244 797.6363,326.7244 Q795.1363,326.7244 793.8081,325.0837 Q792.4956,323.4275 792.4956,320.3025 Q792.4956,317.1775 793.8081,315.5212 Q795.1363,313.865 797.6363,313.865 Q798.3394,313.865 798.98,314.0212 Q799.6363,314.1775 800.1988,314.4744 L800.1988,317.1931 Q799.5738,316.615 798.98,316.3494 Q798.3863,316.0681 797.7613,316.0681 Q796.4175,316.0681 795.73,317.1462 Q795.0425,318.2087 795.0425,320.3025 Q795.0425,322.3962 795.73,323.4744 Q796.4175,324.5369 797.7613,324.5369 Q798.3863,324.5369 798.98,324.2712 Q799.5738,323.99 800.1988,323.4119 L800.1988,326.1306 Z " fill="#000000"/><text fill="#000000" font-family="sans-serif" font-size="14" lengthAdjust="spacing" textLength="140.0137" x="811.23" y="325.3367">VerifyPostController</text><line style="stroke:#181818;stroke-width:0.5;" x1="783.23" x2="953.2437" y1="336.49" y2="336.49"/><line style="stroke:#181818;stroke-width:0.5;" x1="783.23" x2="953.2437" y1="344.49" y2="344.49"/><ellipse cx="793.23" cy="358.1384" fill="#84BE84" rx="3" ry="3" style="stroke:#038048;stroke-width:1;"/><text fill="#000000" font-family="sans-serif" font-size="14" lengthAdjust="spacing" textLength="88.3955" x="802.23" y="361.4851">uploadPost()</text></g><!--class CreatePostController--><g class="entity" data-entity="CreatePostController" data-source-line="27" data-uid="ent0006" id="entity_CreatePostController"><rect fill="#F1F1F1" height="64.2969" rx="2.5" ry="2.5" style="stroke:#181818;stroke-width:0.5;" width="177.79" x="354.35" y="304.49"/><ellipse cx="369.35" cy="320.49" fill="#ADD1B2" rx="11" ry="11" style="stroke:#181818;stroke-width:1;"/><path d="M372.3188,326.1306 Q371.7406,326.4275 371.1,326.5681 Q370.4594,326.7244 369.7563,326.7244 Q367.2563,326.7244 365.9281,325.0837 Q364.6156,323.4275 364.6156,320.3025 Q364.6156,317.1775 365.9281,315.5212 Q367.2563,313.865 369.7563,313.865 Q370.4594,313.865 371.1,314.0212 Q371.7563,314.1775 372.3188,314.4744 L372.3188,317.1931 Q371.6938,316.615 371.1,316.3494 Q370.5063,316.0681 369.8813,316.0681 Q368.5375,316.0681 367.85,317.1462 Q367.1625,318.2087 367.1625,320.3025 Q367.1625,322.3962 367.85,323.4744 Q368.5375,324.5369 369.8813,324.5369 Q370.5063,324.5369 371.1,324.2712 Q371.6938,323.99 372.3188,323.4119 L372.3188,326.1306 Z " fill="#000000"/><text fill="#000000" font-family="sans-serif" font-size="14" lengthAdjust="spacing" textLength="145.79" x="383.35" y="325.3367">CreatePostController</text><line style="stroke:#181818;stroke-width:0.5;" x1="355.35" x2="531.14" y1="336.49" y2="336.49"/><line style="stroke:#181818;stroke-width:0.5;" x1="355.35" x2="531.14" y1="344.49" y2="344.49"/><ellipse cx="365.35" cy="358.1384" fill="#84BE84" rx="3" ry="3" style="stroke:#038048;stroke-width:1;"/><text fill="#000000" font-family="sans-serif" font-size="14" lengthAdjust="spacing" textLength="85.4629" x="374.35" y="361.4851">createPost()</text></g><!--class ConsultPostController--><g class="entity" data-entity="ConsultPostController" data-source-line="30" data-uid="ent0007" id="entity_ConsultPostController"><rect fill="#F1F1F1" height="64.2969" rx="2.5" ry="2.5" style="stroke:#181818;stroke-width:0.5;" width="206.8174" x="112.83" y="304.49"/><ellipse cx="138.2222" cy="320.49" fill="#ADD1B2" rx="11" ry="11" style="stroke:#181818;stroke-width:1;"/><path d="M141.1909,326.1306 Q140.6128,326.4275 139.9722,326.5681 Q139.3316,326.7244 138.6284,326.7244 Q136.1284,326.7244 134.8003,325.0837 Q133.4878,323.4275 133.4878,320.3025 Q133.4878,317.1775 134.8003,315.5212 Q136.1284,313.865 138.6284,313.865 Q139.3316,313.865 139.9722,314.0212 Q140.6284,314.1775 141.1909,314.4744 L141.1909,317.1931 Q140.5659,316.615 139.9722,316.3494 Q139.3784,316.0681 138.7534,316.0681 Q137.4097,316.0681 136.7222,317.1462 Q136.0347,318.2087 136.0347,320.3025 Q136.0347,322.3962 136.7222,323.4744 Q137.4097,324.5369 138.7534,324.5369 Q139.3784,324.5369 139.9722,324.2712 Q140.5659,323.99 141.1909,323.4119 L141.1909,326.1306 Z " fill="#000000"/><text fill="#000000" font-family="sans-serif" font-size="14" lengthAdjust="spacing" textLength="151.7236" x="154.5316" y="325.3367">ConsultPostController</text><line style="stroke:#181818;stroke-width:0.5;" x1="113.83" x2="318.6474" y1="336.49" y2="336.49"/><line style="stroke:#181818;stroke-width:0.5;" x1="113.83" x2="318.6474" y1="344.49" y2="344.49"/><ellipse cx="123.83" cy="358.1384" fill="#84BE84" rx="3" ry="3" style="stroke:#038048;stroke-width:1;"/><text fill="#000000" font-family="sans-serif" font-size="14" lengthAdjust="spacing" textLength="180.8174" x="132.83" y="361.4851">getLatestUploadedPosts()</text></g><!--class SearchPostController--><g class="entity" data-entity="SearchPostController" data-source-line="33" data-uid="ent0008" id="entity_SearchPostController"><rect fill="#F1F1F1" height="64.2969" rx="2.5" ry="2.5" style="stroke:#181818;stroke-width:0.5;" width="179.3691" x="567.56" y="304.49"/><ellipse cx="582.56" cy="320.49" fill="#ADD1B2" rx="11" ry="11" style="stroke:#181818;stroke-width:1;"/><path d="M585.5288,326.1306 Q584.9506,326.4275 584.31,326.5681 Q583.6694,326.7244 582.9663,326.7244 Q580.4663,326.7244 579.1381,325.0837 Q577.8256,323.4275 577.8256,320.3025 Q577.8256,317.1775 579.1381,315.5212 Q580.4663,313.865 582.9663,313.865 Q583.6694,313.865 584.31,314.0212 Q584.9663,314.1775 585.5288,314.4744 L585.5288,317.1931 Q584.9038,316.615 584.31,316.3494 Q583.7163,316.0681 583.0913,316.0681 Q581.7475,316.0681 581.06,317.1462 Q580.3725,318.2087 580.3725,320.3025 Q580.3725,322.3962 581.06,323.4744 Q581.7475,324.5369 583.0913,324.5369 Q583.7163,324.5369 584.31,324.2712 Q584.9038,323.99 585.5288,323.4119 L585.5288,326.1306 Z " fill="#000000"/><text fill="#000000" font-family="sans-serif" font-size="14" lengthAdjust="spacing" textLength="147.3691" x="596.56" y="325.3367">SearchPostController</text><line style="stroke:#181818;stroke-width:0.5;" x1="568.56" x2="745.9291" y1="336.49" y2="336.49"/><line style="stroke:#181818;stroke-width:0.5;" x1="568.56" x2="745.9291" y1="344.49" y2="344.49"/><ellipse cx="578.56" cy="358.1384" fill="#84BE84" rx="3" ry="3" style="stroke:#038048;stroke-width:1;"/><text fill="#000000" font-family="sans-serif" font-size="14" lengthAdjust="spacing" textLength="87.5273" x="587.56" y="361.4851">searchPost()</text></g><!--class ConsultCalendarController--><g class="entity" data-entity="ConsultCalendarController" data-source-line="36" data-uid="ent0009" id="entity_ConsultCalendarController"><rect fill="#F1F1F1" height="64.2969" rx="2.5" ry="2.5" style="stroke:#181818;stroke-width:0.5;" width="216.8848" x="31.8" y="485.82"/><ellipse cx="46.8" cy="501.82" fill="#ADD1B2" rx="11" ry="11" style="stroke:#181818;stroke-width:1;"/><path d="M49.7688,507.4606 Q49.1906,507.7575 48.55,507.8981 Q47.9094,508.0544 47.2063,508.0544 Q44.7063,508.0544 43.3781,506.4137 Q42.0656,504.7575 42.0656,501.6325 Q42.0656,498.5075 43.3781,496.8512 Q44.7063,495.195 47.2063,495.195 Q47.9094,495.195 48.55,495.3512 Q49.2063,495.5075 49.7688,495.8044 L49.7688,498.5231 Q49.1438,497.945 48.55,497.6794 Q47.9563,497.3981 47.3313,497.3981 Q45.9875,497.3981 45.3,498.4762 Q44.6125,499.5387 44.6125,501.6325 Q44.6125,503.7262 45.3,504.8044 Q45.9875,505.8669 47.3313,505.8669 Q47.9563,505.8669 48.55,505.6012 Q49.1438,505.32 49.7688,504.7419 L49.7688,507.4606 Z " fill="#000000"/><text fill="#000000" font-family="sans-serif" font-size="14" lengthAdjust="spacing" textLength="184.8848" x="60.8" y="506.6667">ConsultCalendarController</text><line style="stroke:#181818;stroke-width:0.5;" x1="32.8" x2="247.6848" y1="517.82" y2="517.82"/><line style="stroke:#181818;stroke-width:0.5;" x1="32.8" x2="247.6848" y1="525.82" y2="525.82"/><ellipse cx="42.8" cy="539.4684" fill="#84BE84" rx="3" ry="3" style="stroke:#038048;stroke-width:1;"/><text fill="#000000" font-family="sans-serif" font-size="14" lengthAdjust="spacing" textLength="143.083" x="51.8" y="542.8151">getEventsByMonth()</text></g><!--class VerifyPostView--><g class="entity" data-entity="VerifyPostView" data-source-line="39" data-uid="ent0010" id="entity_VerifyPostView"><rect fill="#F1F1F1" height="64.2969" rx="2.5" ry="2.5" style="stroke:#181818;stroke-width:0.5;" width="168.3174" x="768.08" y="180.19"/><ellipse cx="797.4558" cy="196.19" fill="#ADD1B2" rx="11" ry="11" style="stroke:#181818;stroke-width:1;"/><path d="M800.4246,201.8306 Q799.8465,202.1275 799.2058,202.2681 Q798.5652,202.4244 797.8621,202.4244 Q795.3621,202.4244 794.034,200.7837 Q792.7215,199.1275 792.7215,196.0025 Q792.7215,192.8775 794.034,191.2212 Q795.3621,189.565 797.8621,189.565 Q798.5652,189.565 799.2058,189.7212 Q799.8621,189.8775 800.4246,190.1744 L800.4246,192.8931 Q799.7996,192.315 799.2058,192.0494 Q798.6121,191.7681 797.9871,191.7681 Q796.6433,191.7681 795.9558,192.8462 Q795.2683,193.9087 795.2683,196.0025 Q795.2683,198.0962 795.9558,199.1744 Q796.6433,200.2369 797.9871,200.2369 Q798.6121,200.2369 799.2058,199.9712 Q799.7996,199.69 800.4246,199.1119 L800.4246,201.8306 Z " fill="#000000"/><text fill="#000000" font-family="sans-serif" font-size="14" lengthAdjust="spacing" textLength="104.3711" x="814.6505" y="201.0367">VerifyPostView</text><line style="stroke:#181818;stroke-width:0.5;" x1="769.08" x2="935.3974" y1="212.19" y2="212.19"/><line style="stroke:#181818;stroke-width:0.5;" x1="769.08" x2="935.3974" y1="220.19" y2="220.19"/><ellipse cx="779.08" cy="233.8384" fill="#84BE84" rx="3" ry="3" style="stroke:#038048;stroke-width:1;"/><text fill="#000000" font-family="sans-serif" font-size="14" lengthAdjust="spacing" textLength="142.3174" x="788.08" y="237.1851">approveRejectPost()</text></g><!--class CalendarView--><g class="entity" data-entity="CalendarView" data-source-line="42" data-uid="ent0011" id="entity_CalendarView"><rect fill="#F1F1F1" height="64.2969" rx="2.5" ry="2.5" style="stroke:#181818;stroke-width:0.5;" width="128.4824" x="7" y="180.19"/><ellipse cx="22" cy="196.19" fill="#ADD1B2" rx="11" ry="11" style="stroke:#181818;stroke-width:1;"/><path d="M24.9688,201.8306 Q24.3906,202.1275 23.75,202.2681 Q23.1094,202.4244 22.4063,202.4244 Q19.9063,202.4244 18.5781,200.7837 Q17.2656,199.1275 17.2656,196.0025 Q17.2656,192.8775 18.5781,191.2212 Q19.9063,189.565 22.4063,189.565 Q23.1094,189.565 23.75,189.7212 Q24.4063,189.8775 24.9688,190.1744 L24.9688,192.8931 Q24.3438,192.315 23.75,192.0494 Q23.1563,191.7681 22.5313,191.7681 Q21.1875,191.7681 20.5,192.8462 Q19.8125,193.9087 19.8125,196.0025 Q19.8125,198.0962 20.5,199.1744 Q21.1875,200.2369 22.5313,200.2369 Q23.1563,200.2369 23.75,199.9712 Q24.3438,199.69 24.9688,199.1119 L24.9688,201.8306 Z " fill="#000000"/><text fill="#000000" font-family="sans-serif" font-size="14" lengthAdjust="spacing" textLength="96.4824" x="36" y="201.0367">CalendarView</text><line style="stroke:#181818;stroke-width:0.5;" x1="8" x2="134.4824" y1="212.19" y2="212.19"/><line style="stroke:#181818;stroke-width:0.5;" x1="8" x2="134.4824" y1="220.19" y2="220.19"/><ellipse cx="18" cy="233.8384" fill="#84BE84" rx="3" ry="3" style="stroke:#038048;stroke-width:1;"/><text fill="#000000" font-family="sans-serif" font-size="14" lengthAdjust="spacing" textLength="96.8652" x="27" y="237.1851">getCalendar()</text></g><!--class PostsView--><g class="entity" data-entity="PostsView" data-source-line="45" data-uid="ent0012" id="entity_PostsView"><rect fill="#F1F1F1" height="64.2969" rx="2.5" ry="2.5" style="stroke:#181818;stroke-width:0.5;" width="132.9688" x="192.76" y="180.19"/><ellipse cx="221.4191" cy="196.19" fill="#ADD1B2" rx="11" ry="11" style="stroke:#181818;stroke-width:1;"/><path d="M224.3878,201.8306 Q223.8097,202.1275 223.1691,202.2681 Q222.5285,202.4244 221.8253,202.4244 Q219.3253,202.4244 217.9972,200.7837 Q216.6847,199.1275 216.6847,196.0025 Q216.6847,192.8775 217.9972,191.2212 Q219.3253,189.565 221.8253,189.565 Q222.5285,189.565 223.1691,189.7212 Q223.8253,189.8775 224.3878,190.1744 L224.3878,192.8931 Q223.7628,192.315 223.1691,192.0494 Q222.5753,191.7681 221.9503,191.7681 Q220.6066,191.7681 219.9191,192.8462 Q219.2316,193.9087 219.2316,196.0025 Q219.2316,198.0962 219.9191,199.1744 Q220.6066,200.2369 221.9503,200.2369 Q222.5753,200.2369 223.1691,199.9712 Q223.7628,199.69 224.3878,199.1119 L224.3878,201.8306 Z " fill="#000000"/><text fill="#000000" font-family="sans-serif" font-size="14" lengthAdjust="spacing" textLength="70.6152" x="238.4544" y="201.0367">PostsView</text><line style="stroke:#181818;stroke-width:0.5;" x1="193.76" x2="324.7288" y1="212.19" y2="212.19"/><line style="stroke:#181818;stroke-width:0.5;" x1="193.76" x2="324.7288" y1="220.19" y2="220.19"/><ellipse cx="203.76" cy="233.8384" fill="#84BE84" rx="3" ry="3" style="stroke:#038048;stroke-width:1;"/><text fill="#000000" font-family="sans-serif" font-size="14" lengthAdjust="spacing" textLength="106.9688" x="212.76" y="237.1851">getLatestPost()</text></g><!--class CreatePostView--><g class="entity" data-entity="CreatePostView" data-source-line="48" data-uid="ent0013" id="entity_CreatePostView"><rect fill="#F1F1F1" height="64.2969" rx="2.5" ry="2.5" style="stroke:#181818;stroke-width:0.5;" width="142.1475" x="372.17" y="180.19"/><ellipse cx="387.17" cy="196.19" fill="#ADD1B2" rx="11" ry="11" style="stroke:#181818;stroke-width:1;"/><path d="M390.1388,201.8306 Q389.5606,202.1275 388.92,202.2681 Q388.2794,202.4244 387.5763,202.4244 Q385.0763,202.4244 383.7481,200.7837 Q382.4356,199.1275 382.4356,196.0025 Q382.4356,192.8775 383.7481,191.2212 Q385.0763,189.565 387.5763,189.565 Q388.2794,189.565 388.92,189.7212 Q389.5763,189.8775 390.1388,190.1744 L390.1388,192.8931 Q389.5138,192.315 388.92,192.0494 Q388.3263,191.7681 387.7013,191.7681 Q386.3575,191.7681 385.67,192.8462 Q384.9825,193.9087 384.9825,196.0025 Q384.9825,198.0962 385.67,199.1744 Q386.3575,200.2369 387.7013,200.2369 Q388.3263,200.2369 388.92,199.9712 Q389.5138,199.69 390.1388,199.1119 L390.1388,201.8306 Z " fill="#000000"/><text fill="#000000" font-family="sans-serif" font-size="14" lengthAdjust="spacing" textLength="110.1475" x="401.17" y="201.0367">CreatePostView</text><line style="stroke:#181818;stroke-width:0.5;" x1="373.17" x2="513.3175" y1="212.19" y2="212.19"/><line style="stroke:#181818;stroke-width:0.5;" x1="373.17" x2="513.3175" y1="220.19" y2="220.19"/><ellipse cx="383.17" cy="233.8384" fill="#84BE84" rx="3" ry="3" style="stroke:#038048;stroke-width:1;"/><text fill="#000000" font-family="sans-serif" font-size="14" lengthAdjust="spacing" textLength="62.1113" x="392.17" y="237.1851">setPost()</text></g><!--class SearchPostView--><g class="entity" data-entity="SearchPostView" data-source-line="51" data-uid="ent0014" id="entity_SearchPostView"><rect fill="#F1F1F1" height="64.2969" rx="2.5" ry="2.5" style="stroke:#181818;stroke-width:0.5;" width="153.4766" x="564.5" y="180.19"/><ellipse cx="583.8875" cy="196.19" fill="#ADD1B2" rx="11" ry="11" style="stroke:#181818;stroke-width:1;"/><path d="M586.8563,201.8306 Q586.2781,202.1275 585.6375,202.2681 Q584.9969,202.4244 584.2938,202.4244 Q581.7938,202.4244 580.4656,200.7837 Q579.1531,199.1275 579.1531,196.0025 Q579.1531,192.8775 580.4656,191.2212 Q581.7938,189.565 584.2938,189.565 Q584.9969,189.565 585.6375,189.7212 Q586.2938,189.8775 586.8563,190.1744 L586.8563,192.8931 Q586.2313,192.315 585.6375,192.0494 Q585.0438,191.7681 584.4188,191.7681 Q583.075,191.7681 582.3875,192.8462 Q581.7,193.9087 581.7,196.0025 Q581.7,198.0962 582.3875,199.1744 Q583.075,200.2369 584.4188,200.2369 Q585.0438,200.2369 585.6375,199.9712 Q586.2313,199.69 586.8563,199.1119 L586.8563,201.8306 Z " fill="#000000"/><text fill="#000000" font-family="sans-serif" font-size="14" lengthAdjust="spacing" textLength="111.7266" x="598.8625" y="201.0367">SearchPostView</text><line style="stroke:#181818;stroke-width:0.5;" x1="565.5" x2="716.9766" y1="212.19" y2="212.19"/><line style="stroke:#181818;stroke-width:0.5;" x1="565.5" x2="716.9766" y1="220.19" y2="220.19"/><text fill="#000000" font-family="sans-serif" font-size="14" lengthAdjust="spacing" textLength="141.4766" x="570.5" y="237.1851">setFilterParameter()</text></g><!--link User to PostsView--><g class="link" data-entity-1="User" data-entity-2="PostsView" data-source-line="55" data-uid="lnk15" id="link_User_PostsView"><path codeLine="55" d="M373.15,120.49 C347.97,140.58 320.45,162.52 298.78,179.81 " fill="none" id="User-PostsView" style="stroke:#181818;stroke-width:1;"/></g><!--link User to VerifyPostView--><g class="link" data-entity-1="User" data-entity-2="VerifyPostView" data-source-line="56" data-uid="lnk16" id="link_User_VerifyPostView"><path codeLine="56" d="M518.73,91.68 C589.25,116.98 694.35,154.69 767.66,180.99 " fill="none" id="User-VerifyPostView" style="stroke:#181818;stroke-width:1;"/></g><!--link User to CreatePostView--><g class="link" data-entity-1="User" data-entity-2="CreatePostView" data-source-line="57" data-uid="lnk17" id="link_User_CreatePostView"><path codeLine="57" d="M443.24,120.49 C443.24,140.58 443.24,162.52 443.24,179.81 " fill="none" id="User-CreatePostView" style="stroke:#181818;stroke-width:1;"/></g><!--link User to SearchPostView--><g class="link" data-entity-1="User" data-entity-2="SearchPostView" data-source-line="58" data-uid="lnk18" id="link_User_SearchPostView"><path codeLine="58" d="M518.66,120.49 C545.76,140.58 575.37,162.52 598.7,179.81 " fill="none" id="User-SearchPostView" style="stroke:#181818;stroke-width:1;"/></g><!--link PostsView to ConsultPostController--><g class="link" data-entity-1="PostsView" data-entity-2="ConsultPostController" data-source-line="59" data-uid="lnk19" id="link_PostsView_ConsultPostController"><path codeLine="59" d="M248.17,244.83 C241.75,263.09 235.6793,280.3494 229.2693,298.5894 " fill="none" id="PostsView-to-ConsultPostController" style="stroke:#181818;stroke-width:1;stroke-dasharray:7.0,7.0;"/><polygon fill="#181818" points="227.28,304.25,234.0377,297.0852,228.9377,299.5328,226.4902,294.4329,227.28,304.25" style="stroke:#181818;stroke-width:1;"/></g><!--link CreatePostView to CreatePostController--><g class="link" data-entity-1="CreatePostView" data-entity-2="CreatePostController" data-source-line="60" data-uid="lnk20" id="link_CreatePostView_CreatePostController"><path codeLine="60" d="M443.24,244.83 C443.24,263.09 443.24,280.01 443.24,298.25 " fill="none" id="CreatePostView-to-CreatePostController" style="stroke:#181818;stroke-width:1;stroke-dasharray:7.0,7.0;"/><polygon fill="#181818" points="443.24,304.25,447.24,295.25,443.24,299.25,439.24,295.25,443.24,304.25" style="stroke:#181818;stroke-width:1;"/></g><!--link VerifyPostView to VerifyPostController--><g class="link" data-entity-1="VerifyPostView" data-entity-2="VerifyPostController" data-source-line="61" data-uid="lnk21" id="link_VerifyPostView_VerifyPostController"><path codeLine="61" d="M856.36,244.83 C858.75,263.09 860.9737,280.0604 863.3537,298.3004 " fill="none" id="VerifyPostView-to-VerifyPostController" style="stroke:#181818;stroke-width:1;stroke-dasharray:7.0,7.0;"/><polygon fill="#181818" points="864.13,304.25,866.9319,294.8081,863.4831,299.292,858.9992,295.8432,864.13,304.25" style="stroke:#181818;stroke-width:1;"/></g><!--link SearchPostView to SearchPostController--><g class="link" data-entity-1="SearchPostView" data-entity-2="SearchPostController" data-source-line="62" data-uid="lnk22" id="link_SearchPostView_SearchPostController"><path codeLine="62" d="M645.36,244.83 C647.75,263.09 649.9737,280.0604 652.3537,298.3004 " fill="none" id="SearchPostView-to-SearchPostController" style="stroke:#181818;stroke-width:1;stroke-dasharray:7.0,7.0;"/><polygon fill="#181818" points="653.13,304.25,655.9319,294.8081,652.4831,299.292,647.9992,295.8432,653.13,304.25" style="stroke:#181818;stroke-width:1;"/></g><!--link SearchPostController to Post--><g class="link" data-entity-1="SearchPostController" data-entity-2="Post" data-source-line="63" data-uid="lnk23" id="link_SearchPostController_Post"><path codeLine="63" d="M619.97,368.87 C593.38,391.15 561.2285,418.0959 528.1185,445.8459 " fill="none" id="SearchPostController-to-Post" style="stroke:#181818;stroke-width:1;stroke-dasharray:7.0,7.0;"/><polygon fill="#181818" points="523.52,449.7,532.9871,446.9846,527.3521,446.4883,527.8484,440.8532,523.52,449.7" style="stroke:#181818;stroke-width:1;"/></g><!--link CreatePostController to Post--><g class="link" data-entity-1="CreatePostController" data-entity-2="Post" data-source-line="64" data-uid="lnk24" id="link_CreatePostController_Post"><path codeLine="64" d="M443.24,368.87 C443.24,385.53 443.24,400.96 443.24,422.31 " fill="none" id="CreatePostController-to-Post" style="stroke:#181818;stroke-width:1;stroke-dasharray:7.0,7.0;"/><polygon fill="#181818" points="443.24,428.31,447.24,419.31,443.24,423.31,439.24,419.31,443.24,428.31" style="stroke:#181818;stroke-width:1;"/></g><!--link VerifyPostController to Post--><g class="link" data-entity-1="VerifyPostController" data-entity-2="Post" data-source-line="65" data-uid="lnk25" id="link_VerifyPostController_Post"><path codeLine="65" d="M793.73,369.08 C718.02,401.02 606.6781,448.0075 528.9881,480.7875 " fill="none" id="VerifyPostController-to-Post" style="stroke:#181818;stroke-width:1;stroke-dasharray:7.0,7.0;"/><polygon fill="#181818" points="523.46,483.12,533.3071,483.3067,528.0667,481.1763,530.1971,475.9359,523.46,483.12" style="stroke:#181818;stroke-width:1;"/></g><!--link ConsultPostController to Post--><g class="link" data-entity-1="ConsultPostController" data-entity-2="Post" data-source-line="66" data-uid="lnk26" id="link_ConsultPostController_Post"><path codeLine="66" d="M256.04,369.08 C285.54,392.38 322.0319,421.2206 358.2719,449.8506 " fill="none" id="ConsultPostController-to-Post" style="stroke:#181818;stroke-width:1;stroke-dasharray:7.0,7.0;"/><polygon fill="#181818" points="362.98,453.57,358.3975,444.8522,359.0566,450.4705,353.4383,451.1296,362.98,453.57" style="stroke:#181818;stroke-width:1;"/></g><!--link User to CalendarView--><g class="link" data-entity-1="User" data-entity-2="CalendarView" data-source-line="67" data-uid="lnk27" id="link_User_CalendarView"><path codeLine="67" d="M367.51,94.47 C299.32,121.37 200.18,160.48 135.7,185.91 " fill="none" id="User-CalendarView" style="stroke:#181818;stroke-width:1;"/></g><!--link CalendarView to ConsultCalendarController--><g class="link" data-entity-1="CalendarView" data-entity-2="ConsultCalendarController" data-source-line="68" data-uid="lnk28" id="link_CalendarView_ConsultCalendarController"><path codeLine="68" d="M74.78,244.85 C78.63,276.43 85.57,326.32 95.24,368.78 C104.56,409.68 117.312,450.0748 127.352,479.8348 " fill="none" id="CalendarView-to-ConsultCalendarController" style="stroke:#181818;stroke-width:1;stroke-dasharray:7.0,7.0;"/><polygon fill="#181818" points="129.27,485.52,130.1831,475.7136,127.6717,480.7823,122.6029,478.2709,129.27,485.52" style="stroke:#181818;stroke-width:1;"/></g><!--reverse link Post to Event--><g class="link" data-entity-1="Post" data-entity-2="Event" data-source-line="69" data-uid="lnk29" id="link_Post_Event"><path codeLine="69" d="M350.3253,613.65 C328.2353,636.17 317.6,646.99 298.08,666.88 " fill="none" id="Post-backto-Event" style="stroke:#181818;stroke-width:1;"/><polygon fill="none" points="362.93,600.8,346.042,609.4485,354.6087,617.8516,362.93,600.8" style="stroke:#181818;stroke-width:1;"/></g><!--link ConsultCalendarController to Event--><g class="link" data-entity-1="ConsultCalendarController" data-entity-2="Event" data-source-line="70" data-uid="lnk30" id="link_ConsultCalendarController_Event"><path codeLine="70" d="M158.08,550.4 C175.91,581.83 200.6092,625.3614 221.1592,661.5814 " fill="none" id="ConsultCalendarController-to-Event" style="stroke:#181818;stroke-width:1;stroke-dasharray:7.0,7.0;"/><polygon fill="#181818" points="224.12,666.8,223.1578,656.9983,221.6526,662.4512,216.1997,660.946,224.12,666.8" style="stroke:#181818;stroke-width:1;"/></g><!--SRC=[TLBBJiCm4BpxAt84LUq788G41Kw0AafxHIPT6YF7ZknjgmhwxwpjE7KIjuUeEvwTsLSfkRN5oeBvPSL4yHfkYYKQeRQieD-4dl7pRGJZiHaWK7CXE-Z4IY-yq1QTC0gKWmHHyor1796NLGqA0xm1MnhHeD2gpo_u3YjjXc3J6BqddI-jPOjj0PtlrNM85HpIq0BUXoH2kaAVzbG1LKe5S2IvH_eMBaJXUl-Whuj8sZCfzSJQr3KOyNrq5dEjq6WftJ0dkqPglccTeytS00aFkIHSTWyfMokxapYITXs-4DtYofk0jx59vXAuAQjHektWiSkSIr0RRWQ5nOxjm_6LNgeayTpuMi21vDjblCCFb3XqQUK3DGX7BA7vHb9EwFFY65kgs-g0Snv1b2FEiv08Pi4DNJJz2Mjqrp-TTivjF6WledthYFRDMASrczrbbyZwCewMkGpMBu5OkLjZVNDYvRRFSY1n7S1ovl4jPzdbvNgBZs4qwTvP6fn7CxuyFy3Rl-dKdnwxo2CDp_W7]--></g></svg>