<svg xmlns="http://www.w3.org/2000/svg" xmlns:xlink="http://www.w3.org/1999/xlink" contentStyleType="text/css" data-diagram-type="DESCRIPTION" height="303px" preserveAspectRatio="none" style="width:303px;height:303px;background:#FFFFFF;" version="1.1" viewBox="0 0 303 303" width="303px" zoomAndPan="magnify"><defs/><g><!--entity U--><g class="entity" data-entity="U" data-source-line="1" data-uid="ent0002" id="entity_U"><ellipse cx="61.0651" cy="14" fill="#F1F1F1" rx="8" ry="8" style="stroke:#181818;stroke-width:0.5;"/><path d="M61.0651,22 L61.0651,49 M48.0651,30 L74.0651,30 M61.0651,49 L48.0651,64 M61.0651,49 L74.0651,64 " fill="none" style="stroke:#181818;stroke-width:0.5;"/><text fill="#000000" font-family="sans-serif" font-size="14" lengthAdjust="spacing" textLength="31.9102" x="45.11" y="78.4951">User</text></g><!--entity V--><g class="entity" data-entity="V" data-source-line="3" data-uid="ent0003" id="entity_V"><path d="M40.5669,145.8 L40.5669,169.8 M40.5669,157.8 L57.5669,157.8 " fill="none" style="stroke:#181818;stroke-width:0.5;"/><ellipse cx="69.5669" cy="157.8" fill="#F1F1F1" rx="12" ry="12" style="stroke:#181818;stroke-width:0.5;"/><text fill="#000000" font-family="sans-serif" font-size="14" lengthAdjust="spacing" textLength="110.1338" x="6" y="186.7951">searchPostView</text></g><!--entity G--><g class="entity" data-entity="G" data-source-line="4" data-uid="ent0004" id="entity_G"><ellipse cx="224.0682" cy="157.8" fill="#F1F1F1" rx="12" ry="12" style="stroke:#181818;stroke-width:0.5;"/><polygon fill="#181818" points="220.0682,145.8,226.0682,140.8,224.0682,145.8,226.0682,150.8,220.0682,145.8" style="stroke:#181818;stroke-width:1;"/><text fill="#000000" font-family="sans-serif" font-size="14" lengthAdjust="spacing" textLength="145.7764" x="151.18" y="186.7951">searchPostController</text></g><!--entity P--><g class="entity" data-entity="P" data-source-line="5" data-uid="ent0005" id="entity_P"><ellipse cx="224.07" cy="266.09" fill="#F1F1F1" rx="12" ry="12" style="stroke:#181818;stroke-width:0.5;"/><line style="stroke:#181818;stroke-width:0.5;" x1="212.07" x2="236.07" y1="280.09" y2="280.09"/><text fill="#000000" font-family="sans-serif" font-size="14" lengthAdjust="spacing" textLength="29.791" x="209.1745" y="295.0851">Post</text></g><!--link U to V--><g class="link" data-entity-1="U" data-entity-2="V" data-source-line="7" data-uid="lnk6" id="link_U_V"><path d="M61.07,82.05 C61.07,101.5 61.07,124.67 61.07,141.57 " fill="none" id="U-V" style="stroke:#181818;stroke-width:1;"/></g><!--link V to G--><g class="link" data-entity-1="V" data-entity-2="G" data-source-line="8" data-uid="lnk7" id="link_V_G"><path d="M116.46,165.94 C127.95,165.94 139.44,165.94 150.93,165.94 " fill="none" id="V-G" style="stroke:#181818;stroke-width:1;"/></g><!--link G to P--><g class="link" data-entity-1="G" data-entity-2="P" data-source-line="9" data-uid="lnk8" id="link_G_P"><path d="M224.07,190.54 C224.07,208.15 224.07,232.12 224.07,249.72 " fill="none" id="G-P" style="stroke:#181818;stroke-width:1;"/></g><!--SRC=[JOin3e0W40JxUyN6dbTOqD90ZtY998PBZZF6tolQMExCR2ucYjXPaJiYqI97MxDUc3fdBLkGRgdoEGsVg4WpbVrlvm_jh6_ZYPjLkp3S084emhdddE3KmOFysE46]--></g></svg>