<svg xmlns="http://www.w3.org/2000/svg" xmlns:xlink="http://www.w3.org/1999/xlink" contentStyleType="text/css" data-diagram-type="DESCRIPTION" height="303px" preserveAspectRatio="none" style="width:275px;height:303px;background:#FFFFFF;" version="1.1" viewBox="0 0 275 303" width="275px" zoomAndPan="magnify"><defs/><g><!--entity User--><g class="entity" data-entity="User" data-source-line="1" data-uid="ent0002" id="entity_User"><ellipse cx="41.3051" cy="14" fill="#F1F1F1" rx="8" ry="8" style="stroke:#181818;stroke-width:0.5;"/><path d="M41.3051,22 L41.3051,49 M28.3051,30 L54.3051,30 M41.3051,49 L28.3051,64 M41.3051,49 L54.3051,64 " fill="none" style="stroke:#181818;stroke-width:0.5;"/><text fill="#000000" font-family="sans-serif" font-size="14" lengthAdjust="spacing" textLength="31.9102" x="25.35" y="78.4951">User</text></g><!--entity view--><g class="entity" data-entity="view" data-source-line="2" data-uid="ent0003" id="entity_view"><path d="M20.8076,145.8 L20.8076,169.8 M20.8076,157.8 L37.8076,157.8 " fill="none" style="stroke:#181818;stroke-width:0.5;"/><ellipse cx="49.8076" cy="157.8" fill="#F1F1F1" rx="12" ry="12" style="stroke:#181818;stroke-width:0.5;"/><text fill="#000000" font-family="sans-serif" font-size="14" lengthAdjust="spacing" textLength="70.6152" x="6" y="186.7951">PostsView</text></g><!--entity controller--><g class="entity" data-entity="controller" data-source-line="4" data-uid="ent0005" id="entity_controller"><ellipse cx="190.3097" cy="157.8" fill="#F1F1F1" rx="12" ry="12" style="stroke:#181818;stroke-width:0.5;"/><polygon fill="#181818" points="186.3097,145.8,192.3097,140.8,190.3097,145.8,192.3097,150.8,186.3097,145.8" style="stroke:#181818;stroke-width:1;"/><text fill="#000000" font-family="sans-serif" font-size="14" lengthAdjust="spacing" textLength="156.9395" x="111.84" y="186.7951">consultPostsController</text></g><!--entity P--><g class="entity" data-entity="P" data-source-line="6" data-uid="ent0007" id="entity_P"><ellipse cx="190.31" cy="266.09" fill="#F1F1F1" rx="12" ry="12" style="stroke:#181818;stroke-width:0.5;"/><line style="stroke:#181818;stroke-width:0.5;" x1="178.31" x2="202.31" y1="280.09" y2="280.09"/><text fill="#000000" font-family="sans-serif" font-size="14" lengthAdjust="spacing" textLength="29.791" x="175.4145" y="295.0851">Post</text></g><!--link User to view--><g class="link" data-entity-1="User" data-entity-2="view" data-source-line="3" data-uid="lnk4" id="link_User_view"><path d="M41.31,82.05 C41.31,101.5 41.31,124.67 41.31,141.57 " fill="none" id="User-view" style="stroke:#181818;stroke-width:1;"/></g><!--link view to controller--><g class="link" data-entity-1="view" data-entity-2="controller" data-source-line="5" data-uid="lnk6" id="link_view_controller"><path d="M77.1,165.94 C88.6,165.94 100.1,165.94 111.59,165.94 " fill="none" id="view-controller" style="stroke:#181818;stroke-width:1;"/></g><!--link controller to P--><g class="link" data-entity-1="controller" data-entity-2="P" data-source-line="7" data-uid="lnk8" id="link_controller_P"><path d="M190.31,190.54 C190.31,208.15 190.31,232.12 190.31,249.72 " fill="none" id="controller-P" style="stroke:#181818;stroke-width:1;"/></g><!--SRC=[HOqn3e0W34Ntdg9Xxocy08lkY0maX2PjrNXx0Orkh_-_duPeB3Xh4bXvhrkG2vrdDLroEXq6nQC1T8Ee8qBaQi85NGFTYmrzUiAIP8pYTq8VaT2V8AHgsTv7G_VmrqJ-1W00]--></g></svg>