<svg xmlns="http://www.w3.org/2000/svg" xmlns:xlink="http://www.w3.org/1999/xlink" contentStyleType="text/css" data-diagram-type="DESCRIPTION" height="303px" preserveAspectRatio="none" style="width:274px;height:303px;background:#FFFFFF;" version="1.1" viewBox="0 0 274 303" width="274px" zoomAndPan="magnify"><defs/><g><!--entity User--><g class="entity" data-entity="User" data-source-line="1" data-uid="ent0002" id="entity_User"><ellipse cx="54.2451" cy="14" fill="#F1F1F1" rx="8" ry="8" style="stroke:#181818;stroke-width:0.5;"/><path d="M54.2451,22 L54.2451,49 M41.2451,30 L67.2451,30 M54.2451,49 L41.2451,64 M54.2451,49 L67.2451,64 " fill="none" style="stroke:#181818;stroke-width:0.5;"/><text fill="#000000" font-family="sans-serif" font-size="14" lengthAdjust="spacing" textLength="31.9102" x="38.29" y="78.4951">User</text></g><!--entity view--><g class="entity" data-entity="view" data-source-line="3" data-uid="ent0003" id="entity_view"><path d="M33.7412,145.8 L33.7412,169.8 M33.7412,157.8 L50.7412,157.8 " fill="none" style="stroke:#181818;stroke-width:0.5;"/><ellipse cx="62.7412" cy="157.8" fill="#F1F1F1" rx="12" ry="12" style="stroke:#181818;stroke-width:0.5;"/><text fill="#000000" font-family="sans-serif" font-size="14" lengthAdjust="spacing" textLength="96.4824" x="6" y="186.7951">CalendarView</text></g><!--entity controller--><g class="entity" data-entity="controller" data-source-line="4" data-uid="ent0004" id="entity_controller"><ellipse cx="202.2434" cy="157.8" fill="#F1F1F1" rx="12" ry="12" style="stroke:#181818;stroke-width:0.5;"/><polygon fill="#181818" points="198.2434,145.8,204.2434,140.8,202.2434,145.8,204.2434,150.8,198.2434,145.8" style="stroke:#181818;stroke-width:1;"/><text fill="#000000" font-family="sans-serif" font-size="14" lengthAdjust="spacing" textLength="130.0469" x="137.22" y="186.7951">calendarController</text></g><!--entity E--><g class="entity" data-entity="E" data-source-line="5" data-uid="ent0005" id="entity_E"><ellipse cx="202.2432" cy="266.09" fill="#F1F1F1" rx="12" ry="12" style="stroke:#181818;stroke-width:0.5;"/><line style="stroke:#181818;stroke-width:0.5;" x1="190.2432" x2="214.2432" y1="280.09" y2="280.09"/><text fill="#000000" font-family="sans-serif" font-size="14" lengthAdjust="spacing" textLength="40.1064" x="182.19" y="295.0851">Event</text></g><!--link User to view--><g class="link" data-entity-1="User" data-entity-2="view" data-source-line="6" data-uid="lnk6" id="link_User_view"><path d="M54.24,82.05 C54.24,101.5 54.24,124.67 54.24,141.57 " fill="none" id="User-view" style="stroke:#181818;stroke-width:1;"/></g><!--link view to controller--><g class="link" data-entity-1="view" data-entity-2="controller" data-source-line="7" data-uid="lnk7" id="link_view_controller"><path d="M102.8,165.94 C114.2,165.94 125.59,165.94 136.99,165.94 " fill="none" id="view-controller" style="stroke:#181818;stroke-width:1;"/></g><!--link controller to E--><g class="link" data-entity-1="controller" data-entity-2="E" data-source-line="8" data-uid="lnk8" id="link_controller_E"><path d="M202.24,190.54 C202.24,208.15 202.24,232.12 202.24,249.72 " fill="none" id="controller-E" style="stroke:#181818;stroke-width:1;"/></g><!--SRC=[HOrB3i0W24Jtd8AuvnJ68xHxQraqCPgWjV7szTFK3JoO6R0kHy4jiQ1DemCSyGwdbOfAMyyTzuiVrGsb0RWOiaIFodsodWlFCapk7u53ld95KnfqoS1uHJGlzK92Au2mcCYy]--></g></svg>