<svg xmlns="http://www.w3.org/2000/svg" xmlns:xlink="http://www.w3.org/1999/xlink" contentStyleType="text/css" data-diagram-type="DESCRIPTION" height="303px" preserveAspectRatio="none" style="width:301px;height:303px;background:#FFFFFF;" version="1.1" viewBox="0 0 301 303" width="301px" zoomAndPan="magnify"><defs/><g><!--entity User--><g class="entity" data-entity="User" data-source-line="1" data-uid="ent0002" id="entity_User"><ellipse cx="61.0751" cy="14" fill="#F1F1F1" rx="8" ry="8" style="stroke:#181818;stroke-width:0.5;"/><path d="M61.0751,22 L61.0751,49 M48.0751,30 L74.0751,30 M61.0751,49 L48.0751,64 M61.0751,49 L74.0751,64 " fill="none" style="stroke:#181818;stroke-width:0.5;"/><text fill="#000000" font-family="sans-serif" font-size="14" lengthAdjust="spacing" textLength="31.9102" x="45.12" y="78.4951">User</text></g><!--entity view--><g class="entity" data-entity="view" data-source-line="2" data-uid="ent0003" id="entity_view"><path d="M40.5737,145.8 L40.5737,169.8 M40.5737,157.8 L57.5737,157.8 " fill="none" style="stroke:#181818;stroke-width:0.5;"/><ellipse cx="69.5737" cy="157.8" fill="#F1F1F1" rx="12" ry="12" style="stroke:#181818;stroke-width:0.5;"/><text fill="#000000" font-family="sans-serif" font-size="14" lengthAdjust="spacing" textLength="110.1475" x="6" y="186.7951">CreatePostView</text></g><!--entity controller--><g class="entity" data-entity="controller" data-source-line="4" data-uid="ent0005" id="entity_controller"><ellipse cx="223.076" cy="157.8" fill="#F1F1F1" rx="12" ry="12" style="stroke:#181818;stroke-width:0.5;"/><polygon fill="#181818" points="219.076,145.8,225.076,140.8,223.076,145.8,225.076,150.8,219.076,145.8" style="stroke:#181818;stroke-width:1;"/><text fill="#000000" font-family="sans-serif" font-size="14" lengthAdjust="spacing" textLength="143.7119" x="151.22" y="186.7951">createPostController</text></g><!--entity entity--><g class="entity" data-entity="entity" data-source-line="6" data-uid="ent0007" id="entity_entity"><ellipse cx="223.07" cy="266.09" fill="#F1F1F1" rx="12" ry="12" style="stroke:#181818;stroke-width:0.5;"/><line style="stroke:#181818;stroke-width:0.5;" x1="211.07" x2="235.07" y1="280.09" y2="280.09"/><text fill="#000000" font-family="sans-serif" font-size="14" lengthAdjust="spacing" textLength="29.791" x="208.1745" y="295.0851">Post</text></g><!--link User to view--><g class="link" data-entity-1="User" data-entity-2="view" data-source-line="3" data-uid="lnk4" id="link_User_view"><path d="M61.07,82.05 C61.07,101.5 61.07,124.67 61.07,141.57 " fill="none" id="User-view" style="stroke:#181818;stroke-width:1;"/></g><!--link view to controller--><g class="link" data-entity-1="view" data-entity-2="controller" data-source-line="5" data-uid="lnk6" id="link_view_controller"><path d="M116.44,165.94 C127.97,165.94 139.49,165.94 151.02,165.94 " fill="none" id="view-controller" style="stroke:#181818;stroke-width:1;"/></g><!--link controller to entity--><g class="link" data-entity-1="controller" data-entity-2="entity" data-source-line="7" data-uid="lnk8" id="link_controller_entity"><path d="M223.07,190.54 C223.07,208.15 223.07,232.12 223.07,249.72 " fill="none" id="controller-entity" style="stroke:#181818;stroke-width:1;"/></g><!--SRC=[JOqz2e0m34RtdY9qpobw0HVTQyrGA0saKV7szWUgsvV7UyG7PO6ra9YTptnuUS0w8Q-qSD4jqct15xZgC4r3x3DmLk44DapN3PH8UX7cQLg1WZz2MQFMJwthzW3cKn07UW40]--></g></svg>