<svg xmlns="http://www.w3.org/2000/svg" xmlns:xlink="http://www.w3.org/1999/xlink" contentStyleType="text/css" data-diagram-type="DESCRIPTION" height="164px" preserveAspectRatio="none" style="width:202px;height:164px;background:#FFFFFF;" version="1.1" viewBox="0 0 202 164" width="202px" zoomAndPan="magnify"><defs/><g><!--entity PersonalComputer--><g class="entity" data-entity="PersonalComputer" data-source-line="1" data-uid="ent0002" id="entity_PersonalComputer"><polygon fill="#F1F1F1" points="16,16,26,6,185.6094,6,185.6094,42.2969,175.6094,52.2969,16,52.2969,16,16" style="stroke:#181818;stroke-width:0.5;"/><line style="stroke:#181818;stroke-width:0.5;" x1="175.6094" x2="185.6094" y1="16" y2="6"/><line style="stroke:#181818;stroke-width:0.5;" x1="16" x2="175.6094" y1="16" y2="16"/><line style="stroke:#181818;stroke-width:0.5;" x1="175.6094" x2="175.6094" y1="16" y2="52.2969"/><text fill="#000000" font-family="sans-serif" font-size="14" lengthAdjust="spacing" textLength="129.6094" x="31" y="38.9951">PersonalComputer</text></g><!--entity BuhoSocial.jar--><g class="entity" data-entity="BuhoSocial.jar" data-source-line="2" data-uid="ent0003" id="entity_BuhoSocial.jar"><rect fill="#F1F1F1" height="46.2969" rx="2.5" ry="2.5" style="stroke:#181818;stroke-width:0.5;" width="140.0986" x="30.76" y="112.29"/><rect fill="#F1F1F1" height="10" style="stroke:#181818;stroke-width:0.5;" width="15" x="150.8586" y="117.29"/><rect fill="#F1F1F1" height="2" style="stroke:#181818;stroke-width:0.5;" width="4" x="148.8586" y="119.29"/><rect fill="#F1F1F1" height="2" style="stroke:#181818;stroke-width:0.5;" width="4" x="148.8586" y="123.29"/><text fill="#000000" font-family="sans-serif" font-size="14" lengthAdjust="spacing" textLength="100.0986" x="45.76" y="145.2851">BuhoSocial.jar</text></g><!--link PersonalComputer to BuhoSocial.jar--><g class="link" data-entity-1="PersonalComputer" data-entity-2="BuhoSocial.jar" data-source-line="4" data-uid="lnk4" id="link_PersonalComputer_BuhoSocial.jar"><path d="M100.8,64.78 C100.8,82.27 100.8,88.37 100.8,105.85 " fill="none" id="PersonalComputer-BuhoSocial.jar" style="stroke:#181818;stroke-width:1;"/><polygon fill="#181818" points="100.8,52.78,96.8,58.78,100.8,64.78,104.8,58.78,100.8,52.78" style="stroke:#181818;stroke-width:1;"/><polygon fill="#181818" points="100.8,111.85,104.8,102.85,100.8,106.85,96.8,102.85,100.8,111.85" style="stroke:#181818;stroke-width:1;"/></g><!--SRC=[oyjFILK8I2qgpizBp77EpoqeBKajuae6ClBpKlDA59nAC_A3yvCp4tFqiXABkBZGbIfewUhQeQa20000]--></g></svg>