<svg xmlns="http://www.w3.org/2000/svg" xmlns:xlink="http://www.w3.org/1999/xlink" contentStyleType="text/css" data-diagram-type="CLASS" height="350px" preserveAspectRatio="none" style="width:1627px;height:350px;background:#FFFFFF;" version="1.1" viewBox="0 0 1627 350" width="1627px" zoomAndPan="magnify"><defs/><g><!--cluster views--><g class="cluster" data-entity="views" data-source-line="3" data-uid="ent0002" id="cluster_views"><path d="M8.5,38.59 L54.1865,38.59 A3.75,3.75 0 0 1 56.6865,41.09 L63.6865,60.8869 L534.5,60.8869 A2.5,2.5 0 0 1 537,63.3869 L537,324.57 A2.5,2.5 0 0 1 534.5,327.07 L8.5,327.07 A2.5,2.5 0 0 1 6,324.57 L6,41.09 A2.5,2.5 0 0 1 8.5,38.59 " fill="none" style="stroke:#000000;stroke-width:1.5;"/><line style="stroke:#000000;stroke-width:1.5;" x1="6" x2="63.6865" y1="60.8869" y2="60.8869"/><text fill="#000000" font-family="sans-serif" font-size="14" font-weight="bold" lengthAdjust="spacing" textLength="44.6865" x="10" y="53.5851">views</text></g><!--cluster controllers--><g class="cluster" data-entity="controllers" data-source-line="22" data-uid="ent0008" id="cluster_controllers"><path d="M563.5,38.59 L649.9287,38.59 A3.75,3.75 0 0 1 652.4287,41.09 L659.4287,60.8869 L1216.5,60.8869 A2.5,2.5 0 0 1 1219,63.3869 L1219,324.57 A2.5,2.5 0 0 1 1216.5,327.07 L563.5,327.07 A2.5,2.5 0 0 1 561,324.57 L561,41.09 A2.5,2.5 0 0 1 563.5,38.59 " fill="none" style="stroke:#000000;stroke-width:1.5;"/><line style="stroke:#000000;stroke-width:1.5;" x1="561" x2="659.4287" y1="60.8869" y2="60.8869"/><text fill="#000000" font-family="sans-serif" font-size="14" font-weight="bold" lengthAdjust="spacing" textLength="85.4287" x="565" y="53.5851">controllers</text></g><!--cluster models--><g class="cluster" data-entity="models" data-source-line="40" data-uid="ent0014" id="cluster_models"><path d="M1245.5,6 L1303.3545,6 A3.75,3.75 0 0 1 1305.8545,8.5 L1312.8545,28.2969 L1617.5,28.2969 A2.5,2.5 0 0 1 1620,30.7969 L1620,340.87 A2.5,2.5 0 0 1 1617.5,343.37 L1245.5,343.37 A2.5,2.5 0 0 1 1243,340.87 L1243,8.5 A2.5,2.5 0 0 1 1245.5,6 " fill="none" style="stroke:#000000;stroke-width:1.5;"/><line style="stroke:#000000;stroke-width:1.5;" x1="1243" x2="1312.8545" y1="28.2969" y2="28.2969"/><text fill="#000000" font-family="sans-serif" font-size="14" font-weight="bold" lengthAdjust="spacing" textLength="56.8545" x="1247" y="20.9951">models</text></g><!--class VerifyPostView--><g class="entity" data-entity="VerifyPostView" data-source-line="4" data-uid="ent0003" id="entity_VerifyPostView"><rect fill="#F1F1F1" height="64.2969" rx="2.5" ry="2.5" style="stroke:#181818;stroke-width:0.5;" width="168.3174" x="21.84" y="73.59"/><ellipse cx="51.2158" cy="89.59" fill="#ADD1B2" rx="11" ry="11" style="stroke:#181818;stroke-width:1;"/><path d="M54.1846,95.2306 Q53.6065,95.5275 52.9658,95.6681 Q52.3252,95.8244 51.6221,95.8244 Q49.1221,95.8244 47.794,94.1838 Q46.4815,92.5275 46.4815,89.4025 Q46.4815,86.2775 47.794,84.6213 Q49.1221,82.965 51.6221,82.965 Q52.3252,82.965 52.9658,83.1213 Q53.6221,83.2775 54.1846,83.5744 L54.1846,86.2931 Q53.5596,85.715 52.9658,85.4494 Q52.3721,85.1681 51.7471,85.1681 Q50.4033,85.1681 49.7158,86.2463 Q49.0283,87.3088 49.0283,89.4025 Q49.0283,91.4963 49.7158,92.5744 Q50.4033,93.6369 51.7471,93.6369 Q52.3721,93.6369 52.9658,93.3713 Q53.5596,93.09 54.1846,92.5119 L54.1846,95.2306 Z " fill="#000000"/><text fill="#000000" font-family="sans-serif" font-size="14" lengthAdjust="spacing" textLength="104.3711" x="68.4105" y="94.4367">VerifyPostView</text><line style="stroke:#181818;stroke-width:0.5;" x1="22.84" x2="189.1574" y1="105.59" y2="105.59"/><line style="stroke:#181818;stroke-width:0.5;" x1="22.84" x2="189.1574" y1="113.59" y2="113.59"/><ellipse cx="32.84" cy="127.2384" fill="#84BE84" rx="3" ry="3" style="stroke:#038048;stroke-width:1;"/><text fill="#000000" font-family="sans-serif" font-size="14" lengthAdjust="spacing" textLength="142.3174" x="41.84" y="130.5851">approveRejectPost()</text></g><!--class CalendarView--><g class="entity" data-entity="CalendarView" data-source-line="7" data-uid="ent0004" id="entity_CalendarView"><rect fill="#F1F1F1" height="64.2969" rx="2.5" ry="2.5" style="stroke:#181818;stroke-width:0.5;" width="128.4824" x="224.76" y="73.59"/><ellipse cx="239.76" cy="89.59" fill="#ADD1B2" rx="11" ry="11" style="stroke:#181818;stroke-width:1;"/><path d="M242.7288,95.2306 Q242.1506,95.5275 241.51,95.6681 Q240.8694,95.8244 240.1663,95.8244 Q237.6663,95.8244 236.3381,94.1838 Q235.0256,92.5275 235.0256,89.4025 Q235.0256,86.2775 236.3381,84.6213 Q237.6663,82.965 240.1663,82.965 Q240.8694,82.965 241.51,83.1213 Q242.1663,83.2775 242.7288,83.5744 L242.7288,86.2931 Q242.1038,85.715 241.51,85.4494 Q240.9163,85.1681 240.2913,85.1681 Q238.9475,85.1681 238.26,86.2463 Q237.5725,87.3088 237.5725,89.4025 Q237.5725,91.4963 238.26,92.5744 Q238.9475,93.6369 240.2913,93.6369 Q240.9163,93.6369 241.51,93.3713 Q242.1038,93.09 242.7288,92.5119 L242.7288,95.2306 Z " fill="#000000"/><text fill="#000000" font-family="sans-serif" font-size="14" lengthAdjust="spacing" textLength="96.4824" x="253.76" y="94.4367">CalendarView</text><line style="stroke:#181818;stroke-width:0.5;" x1="225.76" x2="352.2424" y1="105.59" y2="105.59"/><line style="stroke:#181818;stroke-width:0.5;" x1="225.76" x2="352.2424" y1="113.59" y2="113.59"/><ellipse cx="235.76" cy="127.2384" fill="#84BE84" rx="3" ry="3" style="stroke:#038048;stroke-width:1;"/><text fill="#000000" font-family="sans-serif" font-size="14" lengthAdjust="spacing" textLength="96.8652" x="244.76" y="130.5851">getCalendar()</text></g><!--class PostsView--><g class="entity" data-entity="PostsView" data-source-line="10" data-uid="ent0005" id="entity_PostsView"><rect fill="#F1F1F1" height="64.2969" rx="2.5" ry="2.5" style="stroke:#181818;stroke-width:0.5;" width="132.9688" x="388.52" y="73.59"/><ellipse cx="417.1791" cy="89.59" fill="#ADD1B2" rx="11" ry="11" style="stroke:#181818;stroke-width:1;"/><path d="M420.1478,95.2306 Q419.5697,95.5275 418.9291,95.6681 Q418.2885,95.8244 417.5853,95.8244 Q415.0853,95.8244 413.7572,94.1838 Q412.4447,92.5275 412.4447,89.4025 Q412.4447,86.2775 413.7572,84.6213 Q415.0853,82.965 417.5853,82.965 Q418.2885,82.965 418.9291,83.1213 Q419.5853,83.2775 420.1478,83.5744 L420.1478,86.2931 Q419.5228,85.715 418.9291,85.4494 Q418.3353,85.1681 417.7103,85.1681 Q416.3666,85.1681 415.6791,86.2463 Q414.9916,87.3088 414.9916,89.4025 Q414.9916,91.4963 415.6791,92.5744 Q416.3666,93.6369 417.7103,93.6369 Q418.3353,93.6369 418.9291,93.3713 Q419.5228,93.09 420.1478,92.5119 L420.1478,95.2306 Z " fill="#000000"/><text fill="#000000" font-family="sans-serif" font-size="14" lengthAdjust="spacing" textLength="70.6152" x="434.2144" y="94.4367">PostsView</text><line style="stroke:#181818;stroke-width:0.5;" x1="389.52" x2="520.4888" y1="105.59" y2="105.59"/><line style="stroke:#181818;stroke-width:0.5;" x1="389.52" x2="520.4888" y1="113.59" y2="113.59"/><ellipse cx="399.52" cy="127.2384" fill="#84BE84" rx="3" ry="3" style="stroke:#038048;stroke-width:1;"/><text fill="#000000" font-family="sans-serif" font-size="14" lengthAdjust="spacing" textLength="106.9688" x="408.52" y="130.5851">getLatestPost()</text></g><!--class CreatePostView--><g class="entity" data-entity="CreatePostView" data-source-line="13" data-uid="ent0006" id="entity_CreatePostView"><rect fill="#F1F1F1" height="64.2969" rx="2.5" ry="2.5" style="stroke:#181818;stroke-width:0.5;" width="142.1475" x="34.93" y="246.78"/><ellipse cx="49.93" cy="262.78" fill="#ADD1B2" rx="11" ry="11" style="stroke:#181818;stroke-width:1;"/><path d="M52.8988,268.4206 Q52.3206,268.7175 51.68,268.8581 Q51.0394,269.0144 50.3363,269.0144 Q47.8363,269.0144 46.5081,267.3738 Q45.1956,265.7175 45.1956,262.5925 Q45.1956,259.4675 46.5081,257.8113 Q47.8363,256.155 50.3363,256.155 Q51.0394,256.155 51.68,256.3113 Q52.3363,256.4675 52.8988,256.7644 L52.8988,259.4831 Q52.2738,258.905 51.68,258.6394 Q51.0863,258.3581 50.4613,258.3581 Q49.1175,258.3581 48.43,259.4363 Q47.7425,260.4988 47.7425,262.5925 Q47.7425,264.6863 48.43,265.7644 Q49.1175,266.8269 50.4613,266.8269 Q51.0863,266.8269 51.68,266.5613 Q52.2738,266.28 52.8988,265.7019 L52.8988,268.4206 Z " fill="#000000"/><text fill="#000000" font-family="sans-serif" font-size="14" lengthAdjust="spacing" textLength="110.1475" x="63.93" y="267.6267">CreatePostView</text><line style="stroke:#181818;stroke-width:0.5;" x1="35.93" x2="176.0775" y1="278.78" y2="278.78"/><line style="stroke:#181818;stroke-width:0.5;" x1="35.93" x2="176.0775" y1="286.78" y2="286.78"/><ellipse cx="45.93" cy="300.4284" fill="#84BE84" rx="3" ry="3" style="stroke:#038048;stroke-width:1;"/><text fill="#000000" font-family="sans-serif" font-size="14" lengthAdjust="spacing" textLength="62.1113" x="54.93" y="303.7751">setPost()</text></g><!--class SearchPostView--><g class="entity" data-entity="SearchPostView" data-source-line="16" data-uid="ent0007" id="entity_SearchPostView"><rect fill="#F1F1F1" height="64.2969" rx="2.5" ry="2.5" style="stroke:#181818;stroke-width:0.5;" width="153.4766" x="212.26" y="246.78"/><ellipse cx="231.6475" cy="262.78" fill="#ADD1B2" rx="11" ry="11" style="stroke:#181818;stroke-width:1;"/><path d="M234.6162,268.4206 Q234.0381,268.7175 233.3975,268.8581 Q232.7569,269.0144 232.0537,269.0144 Q229.5537,269.0144 228.2256,267.3738 Q226.9131,265.7175 226.9131,262.5925 Q226.9131,259.4675 228.2256,257.8113 Q229.5537,256.155 232.0537,256.155 Q232.7569,256.155 233.3975,256.3113 Q234.0537,256.4675 234.6162,256.7644 L234.6162,259.4831 Q233.9912,258.905 233.3975,258.6394 Q232.8037,258.3581 232.1787,258.3581 Q230.835,258.3581 230.1475,259.4363 Q229.46,260.4988 229.46,262.5925 Q229.46,264.6863 230.1475,265.7644 Q230.835,266.8269 232.1787,266.8269 Q232.8037,266.8269 233.3975,266.5613 Q233.9912,266.28 234.6162,265.7019 L234.6162,268.4206 Z " fill="#000000"/><text fill="#000000" font-family="sans-serif" font-size="14" lengthAdjust="spacing" textLength="111.7266" x="246.6225" y="267.6267">SearchPostView</text><line style="stroke:#181818;stroke-width:0.5;" x1="213.26" x2="364.7366" y1="278.78" y2="278.78"/><line style="stroke:#181818;stroke-width:0.5;" x1="213.26" x2="364.7366" y1="286.78" y2="286.78"/><text fill="#000000" font-family="sans-serif" font-size="14" lengthAdjust="spacing" textLength="141.4766" x="218.26" y="303.7751">setFilterParameter()</text></g><!--class VerifyPostController--><g class="entity" data-entity="VerifyPostController" data-source-line="23" data-uid="ent0009" id="entity_VerifyPostController"><rect fill="#F1F1F1" height="64.2969" rx="2.5" ry="2.5" style="stroke:#181818;stroke-width:0.5;" width="172.0137" x="576.99" y="73.59"/><ellipse cx="591.99" cy="89.59" fill="#ADD1B2" rx="11" ry="11" style="stroke:#181818;stroke-width:1;"/><path d="M594.9588,95.2306 Q594.3806,95.5275 593.74,95.6681 Q593.0994,95.8244 592.3963,95.8244 Q589.8963,95.8244 588.5681,94.1838 Q587.2556,92.5275 587.2556,89.4025 Q587.2556,86.2775 588.5681,84.6213 Q589.8963,82.965 592.3963,82.965 Q593.0994,82.965 593.74,83.1213 Q594.3963,83.2775 594.9588,83.5744 L594.9588,86.2931 Q594.3338,85.715 593.74,85.4494 Q593.1463,85.1681 592.5213,85.1681 Q591.1775,85.1681 590.49,86.2463 Q589.8025,87.3088 589.8025,89.4025 Q589.8025,91.4963 590.49,92.5744 Q591.1775,93.6369 592.5213,93.6369 Q593.1463,93.6369 593.74,93.3713 Q594.3338,93.09 594.9588,92.5119 L594.9588,95.2306 Z " fill="#000000"/><text fill="#000000" font-family="sans-serif" font-size="14" lengthAdjust="spacing" textLength="140.0137" x="605.99" y="94.4367">VerifyPostController</text><line style="stroke:#181818;stroke-width:0.5;" x1="577.99" x2="748.0037" y1="105.59" y2="105.59"/><line style="stroke:#181818;stroke-width:0.5;" x1="577.99" x2="748.0037" y1="113.59" y2="113.59"/><ellipse cx="587.99" cy="127.2384" fill="#84BE84" rx="3" ry="3" style="stroke:#038048;stroke-width:1;"/><text fill="#000000" font-family="sans-serif" font-size="14" lengthAdjust="spacing" textLength="88.3955" x="596.99" y="130.5851">uploadPost()</text></g><!--class CreatePostController--><g class="entity" data-entity="CreatePostController" data-source-line="26" data-uid="ent0010" id="entity_CreatePostController"><rect fill="#F1F1F1" height="64.2969" rx="2.5" ry="2.5" style="stroke:#181818;stroke-width:0.5;" width="177.79" x="784.1" y="73.59"/><ellipse cx="799.1" cy="89.59" fill="#ADD1B2" rx="11" ry="11" style="stroke:#181818;stroke-width:1;"/><path d="M802.0688,95.2306 Q801.4906,95.5275 800.85,95.6681 Q800.2094,95.8244 799.5063,95.8244 Q797.0063,95.8244 795.6781,94.1838 Q794.3656,92.5275 794.3656,89.4025 Q794.3656,86.2775 795.6781,84.6213 Q797.0063,82.965 799.5063,82.965 Q800.2094,82.965 800.85,83.1213 Q801.5063,83.2775 802.0688,83.5744 L802.0688,86.2931 Q801.4438,85.715 800.85,85.4494 Q800.2563,85.1681 799.6313,85.1681 Q798.2875,85.1681 797.6,86.2463 Q796.9125,87.3088 796.9125,89.4025 Q796.9125,91.4963 797.6,92.5744 Q798.2875,93.6369 799.6313,93.6369 Q800.2563,93.6369 800.85,93.3713 Q801.4438,93.09 802.0688,92.5119 L802.0688,95.2306 Z " fill="#000000"/><text fill="#000000" font-family="sans-serif" font-size="14" lengthAdjust="spacing" textLength="145.79" x="813.1" y="94.4367">CreatePostController</text><line style="stroke:#181818;stroke-width:0.5;" x1="785.1" x2="960.89" y1="105.59" y2="105.59"/><line style="stroke:#181818;stroke-width:0.5;" x1="785.1" x2="960.89" y1="113.59" y2="113.59"/><ellipse cx="795.1" cy="127.2384" fill="#84BE84" rx="3" ry="3" style="stroke:#038048;stroke-width:1;"/><text fill="#000000" font-family="sans-serif" font-size="14" lengthAdjust="spacing" textLength="85.4629" x="804.1" y="130.5851">createPost()</text></g><!--class ConsultPostController--><g class="entity" data-entity="ConsultPostController" data-source-line="29" data-uid="ent0011" id="entity_ConsultPostController"><rect fill="#F1F1F1" height="64.2969" rx="2.5" ry="2.5" style="stroke:#181818;stroke-width:0.5;" width="206.8174" x="996.59" y="73.59"/><ellipse cx="1021.9822" cy="89.59" fill="#ADD1B2" rx="11" ry="11" style="stroke:#181818;stroke-width:1;"/><path d="M1024.9509,95.2306 Q1024.3728,95.5275 1023.7322,95.6681 Q1023.0916,95.8244 1022.3884,95.8244 Q1019.8884,95.8244 1018.5603,94.1838 Q1017.2478,92.5275 1017.2478,89.4025 Q1017.2478,86.2775 1018.5603,84.6213 Q1019.8884,82.965 1022.3884,82.965 Q1023.0916,82.965 1023.7322,83.1213 Q1024.3884,83.2775 1024.9509,83.5744 L1024.9509,86.2931 Q1024.3259,85.715 1023.7322,85.4494 Q1023.1384,85.1681 1022.5134,85.1681 Q1021.1697,85.1681 1020.4822,86.2463 Q1019.7947,87.3088 1019.7947,89.4025 Q1019.7947,91.4963 1020.4822,92.5744 Q1021.1697,93.6369 1022.5134,93.6369 Q1023.1384,93.6369 1023.7322,93.3713 Q1024.3259,93.09 1024.9509,92.5119 L1024.9509,95.2306 Z " fill="#000000"/><text fill="#000000" font-family="sans-serif" font-size="14" lengthAdjust="spacing" textLength="151.7236" x="1038.2916" y="94.4367">ConsultPostController</text><line style="stroke:#181818;stroke-width:0.5;" x1="997.59" x2="1202.4074" y1="105.59" y2="105.59"/><line style="stroke:#181818;stroke-width:0.5;" x1="997.59" x2="1202.4074" y1="113.59" y2="113.59"/><ellipse cx="1007.59" cy="127.2384" fill="#84BE84" rx="3" ry="3" style="stroke:#038048;stroke-width:1;"/><text fill="#000000" font-family="sans-serif" font-size="14" lengthAdjust="spacing" textLength="180.8174" x="1016.59" y="130.5851">getLatestUploadedPosts()</text></g><!--class SearchPostController--><g class="entity" data-entity="SearchPostController" data-source-line="32" data-uid="ent0012" id="entity_SearchPostController"><rect fill="#F1F1F1" height="64.2969" rx="2.5" ry="2.5" style="stroke:#181818;stroke-width:0.5;" width="179.3691" x="577.32" y="246.78"/><ellipse cx="592.32" cy="262.78" fill="#ADD1B2" rx="11" ry="11" style="stroke:#181818;stroke-width:1;"/><path d="M595.2888,268.4206 Q594.7106,268.7175 594.07,268.8581 Q593.4294,269.0144 592.7263,269.0144 Q590.2263,269.0144 588.8981,267.3738 Q587.5856,265.7175 587.5856,262.5925 Q587.5856,259.4675 588.8981,257.8113 Q590.2263,256.155 592.7263,256.155 Q593.4294,256.155 594.07,256.3113 Q594.7263,256.4675 595.2888,256.7644 L595.2888,259.4831 Q594.6638,258.905 594.07,258.6394 Q593.4763,258.3581 592.8513,258.3581 Q591.5075,258.3581 590.82,259.4363 Q590.1325,260.4988 590.1325,262.5925 Q590.1325,264.6863 590.82,265.7644 Q591.5075,266.8269 592.8513,266.8269 Q593.4763,266.8269 594.07,266.5613 Q594.6638,266.28 595.2888,265.7019 L595.2888,268.4206 Z " fill="#000000"/><text fill="#000000" font-family="sans-serif" font-size="14" lengthAdjust="spacing" textLength="147.3691" x="606.32" y="267.6267">SearchPostController</text><line style="stroke:#181818;stroke-width:0.5;" x1="578.32" x2="755.6891" y1="278.78" y2="278.78"/><line style="stroke:#181818;stroke-width:0.5;" x1="578.32" x2="755.6891" y1="286.78" y2="286.78"/><ellipse cx="588.32" cy="300.4284" fill="#84BE84" rx="3" ry="3" style="stroke:#038048;stroke-width:1;"/><text fill="#000000" font-family="sans-serif" font-size="14" lengthAdjust="spacing" textLength="87.5273" x="597.32" y="303.7751">searchPost()</text></g><!--class ConsultCalendarController--><g class="entity" data-entity="ConsultCalendarController" data-source-line="35" data-uid="ent0013" id="entity_ConsultCalendarController"><rect fill="#F1F1F1" height="64.2969" rx="2.5" ry="2.5" style="stroke:#181818;stroke-width:0.5;" width="216.8848" x="791.56" y="246.78"/><ellipse cx="806.56" cy="262.78" fill="#ADD1B2" rx="11" ry="11" style="stroke:#181818;stroke-width:1;"/><path d="M809.5288,268.4206 Q808.9506,268.7175 808.31,268.8581 Q807.6694,269.0144 806.9663,269.0144 Q804.4663,269.0144 803.1381,267.3738 Q801.8256,265.7175 801.8256,262.5925 Q801.8256,259.4675 803.1381,257.8113 Q804.4663,256.155 806.9663,256.155 Q807.6694,256.155 808.31,256.3113 Q808.9663,256.4675 809.5288,256.7644 L809.5288,259.4831 Q808.9038,258.905 808.31,258.6394 Q807.7163,258.3581 807.0913,258.3581 Q805.7475,258.3581 805.06,259.4363 Q804.3725,260.4988 804.3725,262.5925 Q804.3725,264.6863 805.06,265.7644 Q805.7475,266.8269 807.0913,266.8269 Q807.7163,266.8269 808.31,266.5613 Q808.9038,266.28 809.5288,265.7019 L809.5288,268.4206 Z " fill="#000000"/><text fill="#000000" font-family="sans-serif" font-size="14" lengthAdjust="spacing" textLength="184.8848" x="820.56" y="267.6267">ConsultCalendarController</text><line style="stroke:#181818;stroke-width:0.5;" x1="792.56" x2="1007.4448" y1="278.78" y2="278.78"/><line style="stroke:#181818;stroke-width:0.5;" x1="792.56" x2="1007.4448" y1="286.78" y2="286.78"/><ellipse cx="802.56" cy="300.4284" fill="#84BE84" rx="3" ry="3" style="stroke:#038048;stroke-width:1;"/><text fill="#000000" font-family="sans-serif" font-size="14" lengthAdjust="spacing" textLength="143.083" x="811.56" y="303.7751">getEventsByMonth()</text></g><!--class Post--><g class="entity" data-entity="Post" data-source-line="42" data-uid="ent0015" id="entity_Post"><rect fill="#F1F1F1" height="129.4844" rx="2.5" ry="2.5" style="stroke:#181818;stroke-width:0.5;" width="160.0938" x="1258.95" y="41"/><ellipse cx="1319.8514" cy="57" fill="#ADD1B2" rx="11" ry="11" style="stroke:#181818;stroke-width:1;"/><path d="M1322.8201,62.6406 Q1322.242,62.9375 1321.6014,63.0781 Q1320.9607,63.2344 1320.2576,63.2344 Q1317.7576,63.2344 1316.4295,61.5938 Q1315.117,59.9375 1315.117,56.8125 Q1315.117,53.6875 1316.4295,52.0313 Q1317.7576,50.375 1320.2576,50.375 Q1320.9607,50.375 1321.6014,50.5313 Q1322.2576,50.6875 1322.8201,50.9844 L1322.8201,53.7031 Q1322.1951,53.125 1321.6014,52.8594 Q1321.0076,52.5781 1320.3826,52.5781 Q1319.0389,52.5781 1318.3514,53.6563 Q1317.6639,54.7188 1317.6639,56.8125 Q1317.6639,58.9063 1318.3514,59.9844 Q1319.0389,61.0469 1320.3826,61.0469 Q1321.0076,61.0469 1321.6014,60.7813 Q1322.1951,60.5 1322.8201,59.9219 L1322.8201,62.6406 Z " fill="#000000"/><text fill="#000000" font-family="sans-serif" font-size="14" lengthAdjust="spacing" textLength="29.791" x="1340.3514" y="61.8467">Post</text><line style="stroke:#181818;stroke-width:0.5;" x1="1259.95" x2="1418.0438" y1="73" y2="73"/><ellipse cx="1269.95" cy="86.6484" fill="none" rx="3" ry="3" style="stroke:#038048;stroke-width:1;"/><text fill="#000000" font-family="sans-serif" font-size="14" lengthAdjust="spacing" textLength="78.3193" x="1278.95" y="89.9951">title: String</text><ellipse cx="1269.95" cy="102.9453" fill="none" rx="3" ry="3" style="stroke:#038048;stroke-width:1;"/><text fill="#000000" font-family="sans-serif" font-size="14" lengthAdjust="spacing" textLength="134.0938" x="1278.95" y="106.292">image: attachment</text><ellipse cx="1269.95" cy="119.2422" fill="none" rx="3" ry="3" style="stroke:#038048;stroke-width:1;"/><text fill="#000000" font-family="sans-serif" font-size="14" lengthAdjust="spacing" textLength="128.7891" x="1278.95" y="122.5889">description: String</text><ellipse cx="1269.95" cy="135.5391" fill="none" rx="3" ry="3" style="stroke:#038048;stroke-width:1;"/><text fill="#000000" font-family="sans-serif" font-size="14" lengthAdjust="spacing" textLength="97.084" x="1278.95" y="138.8857">author: String</text><ellipse cx="1269.95" cy="151.8359" fill="none" rx="3" ry="3" style="stroke:#038048;stroke-width:1;"/><text fill="#000000" font-family="sans-serif" font-size="14" lengthAdjust="spacing" textLength="96.6465" x="1278.95" y="155.1826">approve: bool</text><line style="stroke:#181818;stroke-width:0.5;" x1="1259.95" x2="1418.0438" y1="162.4844" y2="162.4844"/></g><!--class Event--><g class="entity" data-entity="Event" data-source-line="50" data-uid="ent0016" id="entity_Event"><rect fill="#F1F1F1" height="96.8906" rx="2.5" ry="2.5" style="stroke:#181818;stroke-width:0.5;" width="101.4893" x="1288.26" y="230.48"/><ellipse cx="1316.4823" cy="246.48" fill="#ADD1B2" rx="11" ry="11" style="stroke:#181818;stroke-width:1;"/><path d="M1319.451,252.1206 Q1318.8729,252.4175 1318.2323,252.5581 Q1317.5916,252.7144 1316.8885,252.7144 Q1314.3885,252.7144 1313.0604,251.0738 Q1311.7479,249.4175 1311.7479,246.2925 Q1311.7479,243.1675 1313.0604,241.5113 Q1314.3885,239.855 1316.8885,239.855 Q1317.5916,239.855 1318.2323,240.0113 Q1318.8885,240.1675 1319.451,240.4644 L1319.451,243.1831 Q1318.826,242.605 1318.2323,242.3394 Q1317.6385,242.0581 1317.0135,242.0581 Q1315.6698,242.0581 1314.9823,243.1363 Q1314.2948,244.1988 1314.2948,246.2925 Q1314.2948,248.3863 1314.9823,249.4644 Q1315.6698,250.5269 1317.0135,250.5269 Q1317.6385,250.5269 1318.2323,250.2613 Q1318.826,249.98 1319.451,249.4019 L1319.451,252.1206 Z " fill="#000000"/><text fill="#000000" font-family="sans-serif" font-size="14" lengthAdjust="spacing" textLength="40.1064" x="1333.4205" y="251.3267">Event</text><line style="stroke:#181818;stroke-width:0.5;" x1="1289.26" x2="1388.7493" y1="262.48" y2="262.48"/><ellipse cx="1299.26" cy="276.1284" fill="none" rx="3" ry="3" style="stroke:#038048;stroke-width:1;"/><text fill="#000000" font-family="sans-serif" font-size="14" lengthAdjust="spacing" textLength="74.1973" x="1308.26" y="279.4751">date: Date</text><ellipse cx="1299.26" cy="292.4253" fill="none" rx="3" ry="3" style="stroke:#038048;stroke-width:1;"/><text fill="#000000" font-family="sans-serif" font-size="14" lengthAdjust="spacing" textLength="75.4893" x="1308.26" y="295.772">time: Time</text><line style="stroke:#181818;stroke-width:0.5;" x1="1289.26" x2="1388.7493" y1="303.0738" y2="303.0738"/><ellipse cx="1299.26" cy="316.7222" fill="#84BE84" rx="3" ry="3" style="stroke:#038048;stroke-width:1;"/><text fill="#000000" font-family="sans-serif" font-size="14" lengthAdjust="spacing" textLength="74.0195" x="1308.26" y="320.0689">getEvent()</text></g><!--class User--><g class="entity" data-entity="User" data-source-line="57" data-uid="ent0018" id="entity_User"><rect fill="#F1F1F1" height="113.1875" rx="2.5" ry="2.5" style="stroke:#181818;stroke-width:0.5;" width="150.5029" x="1453.75" y="49.14"/><ellipse cx="1508.7964" cy="65.14" fill="#ADD1B2" rx="11" ry="11" style="stroke:#181818;stroke-width:1;"/><path d="M1511.7651,70.7806 Q1511.187,71.0775 1510.5464,71.2181 Q1509.9058,71.3744 1509.2026,71.3744 Q1506.7026,71.3744 1505.3745,69.7337 Q1504.062,68.0775 1504.062,64.9525 Q1504.062,61.8275 1505.3745,60.1712 Q1506.7026,58.515 1509.2026,58.515 Q1509.9058,58.515 1510.5464,58.6712 Q1511.2026,58.8275 1511.7651,59.1244 L1511.7651,61.8431 Q1511.1401,61.265 1510.5464,60.9994 Q1509.9526,60.7181 1509.3276,60.7181 Q1507.9839,60.7181 1507.2964,61.7962 Q1506.6089,62.8587 1506.6089,64.9525 Q1506.6089,67.0462 1507.2964,68.1244 Q1507.9839,69.1869 1509.3276,69.1869 Q1509.9526,69.1869 1510.5464,68.9212 Q1511.1401,68.64 1511.7651,68.0619 L1511.7651,70.7806 Z " fill="#000000"/><text fill="#000000" font-family="sans-serif" font-size="14" lengthAdjust="spacing" textLength="31.9102" x="1529.2964" y="69.9867">User</text><line style="stroke:#181818;stroke-width:0.5;" x1="1454.75" x2="1603.2529" y1="81.14" y2="81.14"/><ellipse cx="1464.75" cy="94.7884" fill="none" rx="3" ry="3" style="stroke:#038048;stroke-width:1;"/><text fill="#000000" font-family="sans-serif" font-size="14" lengthAdjust="spacing" textLength="90.6514" x="1473.75" y="98.1351">name: String</text><ellipse cx="1464.75" cy="111.0853" fill="none" rx="3" ry="3" style="stroke:#038048;stroke-width:1;"/><text fill="#000000" font-family="sans-serif" font-size="14" lengthAdjust="spacing" textLength="124.5029" x="1473.75" y="114.432">last_Name: String</text><ellipse cx="1464.75" cy="127.3822" fill="none" rx="3" ry="3" style="stroke:#038048;stroke-width:1;"/><text fill="#000000" font-family="sans-serif" font-size="14" lengthAdjust="spacing" textLength="82.2227" x="1473.75" y="130.7289">type: String</text><ellipse cx="1464.75" cy="143.6791" fill="none" rx="3" ry="3" style="stroke:#038048;stroke-width:1;"/><text fill="#000000" font-family="sans-serif" font-size="14" lengthAdjust="spacing" textLength="89.5576" x="1473.75" y="147.0257">email: String</text><line style="stroke:#181818;stroke-width:0.5;" x1="1454.75" x2="1603.2529" y1="154.3275" y2="154.3275"/></g><!--reverse link Post to Event--><g class="link" data-entity-1="Post" data-entity-2="Event" data-source-line="55" data-uid="lnk17" id="link_Post_Event"><path codeLine="55" d="M1339,188.97 C1339,208.61 1339,211.85 1339,230.19 " fill="none" id="Post-backto-Event" style="stroke:#181818;stroke-width:1;"/><polygon fill="none" points="1339,170.97,1333,188.97,1345,188.97,1339,170.97" style="stroke:#181818;stroke-width:1;"/></g><!--SRC=[TLB1Ki8m4BtdAtBKwV037OQ3A2Tr616kpfgkD9eqdMG16UJVtQOGQeivPDgtR_VblLamnksi_jRLMeWQr1UiKMurxe8SZsVE5EWd4taGaeyo489SeTSV-xaBj6BQGMHGrzvjyGK_KL63tzoAesZ9Kp1O5U1RgfJP6kcCTMXDL-Xo7e4m38PvPFYYBBE0VSu2mQkomv7CcMb3wEVWmI9_HFgniNInh5n5tXc3lcUyRtgQY6nzKni7nR_Fx7BPbqg5BjjLOMDeC5gc59PH1ADCk6hrJsD8y53b77tlOIpriCMAmjt-YIlbAQ0KZdK5cbukdOrejDeDQKv6cWpcSa6-MQe4QykZSWb4e4hBQfTIWK5vNPDsrR0FDbGwVmLlrowNxywP22UtqKnqLd22kRpdMuhuDCk_htntRKUxZOdnpsWK4N4Qj0mneQm2-zTHncLwUnx0jAzx25hG9a4Swoy0]--></g></svg>