<svg xmlns="http://www.w3.org/2000/svg" xmlns:xlink="http://www.w3.org/1999/xlink" contentStyleType="text/css" data-diagram-type="SEQUENCE" height="340px" preserveAspectRatio="none" style="width:445px;height:340px;background:#FFFFFF;" version="1.1" viewBox="0 0 445 340" width="445px" zoomAndPan="magnify"><defs/><g><g><title>User</title><rect fill="#FFFFFF" height="159.6641" style="stroke:#181818;stroke-width:1;" width="10" x="18.9551" y="91.2969"/></g><g><title>createPostView</title><rect fill="#FFFFFF" height="92.3984" style="stroke:#181818;stroke-width:1;" width="10" x="110.6299" y="91.2969"/></g><g><title>createPostController</title><rect fill="#FFFFFF" height="101.3984" style="stroke:#181818;stroke-width:1;" width="10" x="252.5205" y="149.5625"/></g><g><title>Post</title><rect fill="#FFFFFF" height="67.2656" style="stroke:#181818;stroke-width:1;" width="10" x="421.313" y="183.6953"/></g><g><title>User</title><rect fill="#000000" fill-opacity="0.00000" height="178.6641" width="8" x="19.9551" y="81.2969"/><line style="stroke:#181818;stroke-width:0.5;stroke-dasharray:5.0,5.0;" x1="23" x2="23" y1="81.2969" y2="259.9609"/></g><g><title>createPostView</title><rect fill="#000000" fill-opacity="0.00000" height="178.6641" width="8" x="111.6299" y="81.2969"/><line style="stroke:#181818;stroke-width:0.5;stroke-dasharray:5.0,5.0;" x1="115.5952" x2="115.5952" y1="81.2969" y2="259.9609"/></g><g><title>createPostController</title><rect fill="#000000" fill-opacity="0.00000" height="178.6641" width="8" x="253.5205" y="81.2969"/><line style="stroke:#181818;stroke-width:0.5;stroke-dasharray:5.0,5.0;" x1="256.6646" x2="256.6646" y1="81.2969" y2="259.9609"/></g><g><title>Post</title><rect fill="#000000" fill-opacity="0.00000" height="178.6641" width="8" x="422.313" y="81.2969"/><line style="stroke:#181818;stroke-width:0.5;stroke-dasharray:5.0,5.0;" x1="425.4175" x2="425.4175" y1="81.2969" y2="259.9609"/></g><g class="participant participant-head" data-participant="User"><text fill="#000000" font-family="sans-serif" font-size="14" lengthAdjust="spacing" textLength="31.9102" x="5" y="77.9951">User</text><ellipse cx="23.9551" cy="13.5" fill="#E2E2F0" rx="8" ry="8" style="stroke:#181818;stroke-width:0.5;"/><path d="M23.9551,21.5 L23.9551,48.5 M10.9551,29.5 L36.9551,29.5 M23.9551,48.5 L10.9551,63.5 M23.9551,48.5 L36.9551,63.5 " fill="none" style="stroke:#181818;stroke-width:0.5;"/></g><g class="participant participant-tail" data-participant="User"><text fill="#000000" font-family="sans-serif" font-size="14" lengthAdjust="spacing" textLength="31.9102" x="5" y="271.9561">User</text><ellipse cx="23.9551" cy="283.7578" fill="#E2E2F0" rx="8" ry="8" style="stroke:#181818;stroke-width:0.5;"/><path d="M23.9551,291.7578 L23.9551,318.7578 M10.9551,299.7578 L36.9551,299.7578 M23.9551,318.7578 L10.9551,333.7578 M23.9551,318.7578 L36.9551,333.7578 " fill="none" style="stroke:#181818;stroke-width:0.5;"/></g><g class="participant participant-head" data-participant="createPostView"><text fill="#000000" font-family="sans-serif" font-size="14" lengthAdjust="spacing" textLength="108.0693" x="58.5952" y="77.9951">createPostView</text><path d="M95.1299,37 L95.1299,61 M95.1299,49 L112.1299,49 " fill="none" style="stroke:#181818;stroke-width:0.5;"/><ellipse cx="124.1299" cy="49" fill="#E2E2F0" rx="12" ry="12" style="stroke:#181818;stroke-width:0.5;"/></g><g class="participant participant-tail" data-participant="createPostView"><text fill="#000000" font-family="sans-serif" font-size="14" lengthAdjust="spacing" textLength="108.0693" x="58.5952" y="271.9561">createPostView</text><path d="M95.1299,279.2578 L95.1299,303.2578 M95.1299,291.2578 L112.1299,291.2578 " fill="none" style="stroke:#181818;stroke-width:0.5;"/><ellipse cx="124.1299" cy="291.2578" fill="#E2E2F0" rx="12" ry="12" style="stroke:#181818;stroke-width:0.5;"/></g><g class="participant participant-head" data-participant="createPostController"><text fill="#000000" font-family="sans-serif" font-size="14" lengthAdjust="spacing" textLength="143.7119" x="182.6646" y="77.9951">createPostController</text><ellipse cx="257.5205" cy="49" fill="#E2E2F0" rx="12" ry="12" style="stroke:#181818;stroke-width:0.5;"/><polygon fill="#181818" points="253.5205,37,259.5205,32,257.5205,37,259.5205,42,253.5205,37" style="stroke:#181818;stroke-width:1;"/></g><g class="participant participant-tail" data-participant="createPostController"><text fill="#000000" font-family="sans-serif" font-size="14" lengthAdjust="spacing" textLength="143.7119" x="182.6646" y="271.9561">createPostController</text><ellipse cx="257.5205" cy="291.2578" fill="#E2E2F0" rx="12" ry="12" style="stroke:#181818;stroke-width:0.5;"/><polygon fill="#181818" points="253.5205,279.2578,259.5205,274.2578,257.5205,279.2578,259.5205,284.2578,253.5205,279.2578" style="stroke:#181818;stroke-width:1;"/></g><g class="participant participant-head" data-participant="Post"><text fill="#000000" font-family="sans-serif" font-size="14" lengthAdjust="spacing" textLength="29.791" x="408.4175" y="77.9951">Post</text><ellipse cx="426.313" cy="49" fill="#E2E2F0" rx="12" ry="12" style="stroke:#181818;stroke-width:0.5;"/><line style="stroke:#181818;stroke-width:0.5;" x1="414.313" x2="438.313" y1="63" y2="63"/></g><g class="participant participant-tail" data-participant="Post"><text fill="#000000" font-family="sans-serif" font-size="14" lengthAdjust="spacing" textLength="29.791" x="408.4175" y="271.9561">Post</text><ellipse cx="426.313" cy="291.2578" fill="#E2E2F0" rx="12" ry="12" style="stroke:#181818;stroke-width:0.5;"/><line style="stroke:#181818;stroke-width:0.5;" x1="414.313" x2="438.313" y1="305.2578" y2="305.2578"/></g><g><title>User</title><rect fill="#FFFFFF" height="159.6641" style="stroke:#181818;stroke-width:1;" width="10" x="18.9551" y="91.2969"/></g><g><title>createPostView</title><rect fill="#FFFFFF" height="92.3984" style="stroke:#181818;stroke-width:1;" width="10" x="110.6299" y="91.2969"/></g><g><title>createPostController</title><rect fill="#FFFFFF" height="101.3984" style="stroke:#181818;stroke-width:1;" width="10" x="252.5205" y="149.5625"/></g><g><title>Post</title><rect fill="#FFFFFF" height="67.2656" style="stroke:#181818;stroke-width:1;" width="10" x="421.313" y="183.6953"/></g><g class="message" data-participant-1="User" data-participant-2="createPostView"><polygon fill="#181818" points="98.6299,108.4297,108.6299,112.4297,98.6299,116.4297,102.6299,112.4297" style="stroke:#181818;stroke-width:1;"/><line style="stroke:#181818;stroke-width:1;" x1="28.9551" x2="104.6299" y1="112.4297" y2="112.4297"/><text fill="#000000" font-family="sans-serif" font-size="13" lengthAdjust="spacing" textLength="57.6748" x="35.9551" y="107.3638">setPost()</text></g><g class="message" data-participant-1="createPostView" data-participant-2="createPostView"><line style="stroke:#181818;stroke-width:1;" x1="120.6299" x2="162.6299" y1="141.5625" y2="141.5625"/><line style="stroke:#181818;stroke-width:1;" x1="162.6299" x2="162.6299" y1="141.5625" y2="154.5625"/><line style="stroke:#181818;stroke-width:1;" x1="121.6299" x2="162.6299" y1="154.5625" y2="154.5625"/><polygon fill="#181818" points="131.6299,150.5625,121.6299,154.5625,131.6299,158.5625,127.6299,154.5625" style="stroke:#181818;stroke-width:1;"/><text fill="#000000" font-family="sans-serif" font-size="13" lengthAdjust="spacing" textLength="78.1841" x="127.6299" y="136.4966">fieldCheck()</text></g><g class="message" data-participant-1="createPostView" data-participant-2="createPostController"><polygon fill="#181818" points="240.5205,179.6953,250.5205,183.6953,240.5205,187.6953,244.5205,183.6953" style="stroke:#181818;stroke-width:1;"/><line style="stroke:#181818;stroke-width:1;" x1="115.6299" x2="246.5205" y1="183.6953" y2="183.6953"/><text fill="#000000" font-family="sans-serif" font-size="13" lengthAdjust="spacing" textLength="79.3584" x="122.6299" y="178.6294">createPost()</text></g><g class="message" data-participant-1="createPostController" data-participant-2="Post"><polygon fill="#181818" points="409.313,208.8281,419.313,212.8281,409.313,216.8281,413.313,212.8281" style="stroke:#181818;stroke-width:1;"/><line style="stroke:#181818;stroke-width:1;" x1="262.5205" x2="415.313" y1="212.8281" y2="212.8281"/><text fill="#000000" font-family="sans-serif" font-size="13" lengthAdjust="spacing" textLength="64.6763" x="269.5205" y="207.7622">newPost()</text></g><g class="message" data-participant-1="Post" data-participant-2="createPostController"><polygon fill="#181818" points="273.5205,237.9609,263.5205,241.9609,273.5205,245.9609,269.5205,241.9609" style="stroke:#181818;stroke-width:1;"/><line style="stroke:#181818;stroke-width:1;" x1="267.5205" x2="420.313" y1="241.9609" y2="241.9609"/><text fill="#000000" font-family="sans-serif" font-size="13" lengthAdjust="spacing" textLength="134.7925" x="279.5205" y="236.895">putOnVerifiableList()</text></g><!--SRC=[TOyz3eCm34Rtd29ZEt2132oibTgbx24ngjKegO8fulR4fUAd9LFavy_FZZOKehnt44KJUczr7AM9e0bkeQCQOH0cU8h1RN0r4vU6m1FIA9aARGZVAJBhbkf7nysYt4CbEo0kJcUnx_mbMmHdgmUOPyeUxDZSbZUj8RN2vBEGkthXdvyUcOgIQoKz35yRFvcjhvwkleQ8BUh6mGLvO080]--></g></svg>