<svg xmlns="http://www.w3.org/2000/svg" xmlns:xlink="http://www.w3.org/1999/xlink" contentStyleType="text/css" data-diagram-type="DESCRIPTION" height="303px" preserveAspectRatio="none" style="width:289px;height:303px;background:#FFFFFF;" version="1.1" viewBox="0 0 289 303" width="289px" zoomAndPan="magnify"><defs/><g><!--entity Act--><g class="entity" data-entity="Act" data-source-line="1" data-uid="ent0002" id="entity_Act"><ellipse cx="57.5353" cy="14" fill="#F1F1F1" rx="8" ry="8" style="stroke:#181818;stroke-width:0.5;"/><path d="M57.5353,22 L57.5353,49 M44.5353,30 L70.5353,30 M57.5353,49 L44.5353,64 M57.5353,49 L70.5353,64 " fill="none" style="stroke:#181818;stroke-width:0.5;"/><text fill="#000000" font-family="sans-serif" font-size="14" lengthAdjust="spacing" textLength="79.8506" x="17.61" y="78.4951">Admin user</text></g><!--entity view--><g class="entity" data-entity="view" data-source-line="2" data-uid="ent0003" id="entity_view"><path d="M37.0396,145.8 L37.0396,169.8 M37.0396,157.8 L54.0396,157.8 " fill="none" style="stroke:#181818;stroke-width:0.5;"/><ellipse cx="66.0396" cy="157.8" fill="#F1F1F1" rx="12" ry="12" style="stroke:#181818;stroke-width:0.5;"/><text fill="#000000" font-family="sans-serif" font-size="14" lengthAdjust="spacing" textLength="103.0791" x="6" y="186.7951">verifyPostView</text></g><!--entity controller--><g class="entity" data-entity="controller" data-source-line="4" data-uid="ent0005" id="entity_controller"><ellipse cx="213.5408" cy="157.8" fill="#F1F1F1" rx="12" ry="12" style="stroke:#181818;stroke-width:0.5;"/><polygon fill="#181818" points="209.5408,145.8,215.5408,140.8,213.5408,145.8,215.5408,150.8,209.5408,145.8" style="stroke:#181818;stroke-width:1;"/><text fill="#000000" font-family="sans-serif" font-size="14" lengthAdjust="spacing" textLength="138.7217" x="144.18" y="186.7951">verifyPostController</text></g><!--entity entity--><g class="entity" data-entity="entity" data-source-line="6" data-uid="ent0007" id="entity_entity"><ellipse cx="213.54" cy="266.09" fill="#F1F1F1" rx="12" ry="12" style="stroke:#181818;stroke-width:0.5;"/><line style="stroke:#181818;stroke-width:0.5;" x1="201.54" x2="225.54" y1="280.09" y2="280.09"/><text fill="#000000" font-family="sans-serif" font-size="14" lengthAdjust="spacing" textLength="29.791" x="198.6445" y="295.0851">Post</text></g><!--link Act to view--><g class="link" data-entity-1="Act" data-entity-2="view" data-source-line="3" data-uid="lnk4" id="link_Act_view"><path d="M57.54,82.05 C57.54,101.5 57.54,124.67 57.54,141.57 " fill="none" id="Act-view" style="stroke:#181818;stroke-width:1;"/></g><!--link view to controller--><g class="link" data-entity-1="view" data-entity-2="controller" data-source-line="5" data-uid="lnk6" id="link_view_controller"><path d="M109.34,165.94 C120.87,165.94 132.4,165.94 143.94,165.94 " fill="none" id="view-controller" style="stroke:#181818;stroke-width:1;"/></g><!--link controller to entity--><g class="link" data-entity-1="controller" data-entity-2="entity" data-source-line="7" data-uid="lnk8" id="link_controller_entity"><path d="M213.54,190.54 C213.54,208.15 213.54,232.12 213.54,249.72 " fill="none" id="controller-entity" style="stroke:#181818;stroke-width:1;"/></g><!--SRC=[JOn13e0W30JllABXtaSGF-39Eo8c94YJKZJyNX6ZtdOdiskT48CsonOIbEnPWyrWdAYPIbeiLz2xvx3MaR9CmH-ti5z1NHRYdHmbOOf_TUWeFe_khQejaF57V98W5TgikRsgJq3iw0G0]--></g></svg>